# Blender v2.58 (sub 0) OBJ File: 'asteroid_light.blend'
# www.blender.org
mtllib asteroid_light.mtl
o Cube
v 0.046957 -0.528939 -0.077913
v 0.217733 -0.524775 -0.077913
v 0.046957 -0.465479 0.090495
v -0.109921 -0.483576 -0.077913
v 0.046957 -0.514196 -0.264677
v 0.205873 -0.496080 -0.255415
v 0.203885 -0.490614 0.097370
v -0.075061 -0.394611 0.058377
v -0.107982 -0.485145 -0.250974
v 0.046957 0.407771 -0.077913
v 0.046957 0.400223 -0.281946
v -0.102343 0.301307 -0.077913
v 0.046957 0.331404 0.100190
v 0.242542 0.438512 -0.077913
v 0.214719 0.360603 -0.265296
v -0.096291 0.293188 -0.237915
v -0.115494 0.345999 0.103539
v 0.199995 0.320110 0.093024
v 0.453420 -0.079903 -0.077913
v 0.402897 -0.079903 -0.251427
v 0.457172 0.117314 -0.077913
v 0.463054 -0.079903 0.121019
v 0.496309 -0.293720 -0.077913
v 0.372731 -0.237357 -0.234752
v 0.392545 0.086611 -0.243776
v 0.400010 0.090024 0.091351
v 0.487368 -0.289772 0.131137
v 0.046957 -0.079903 0.354090
v 0.248918 -0.079903 0.457304
v 0.046957 0.088478 0.304350
v -0.114125 -0.079903 0.336598
v 0.046957 -0.251046 0.311622
v 0.206884 -0.259235 0.339410
v 0.213135 0.106439 0.356533
v -0.110657 0.096836 0.333074
v -0.093515 -0.237420 0.286118
v -0.413937 -0.079903 -0.077913
v -0.433213 -0.079903 0.148091
v -0.441140 0.150350 -0.077913
v -0.312775 -0.079903 -0.253030
v -0.330797 -0.263350 -0.077913
v -0.356308 -0.272788 0.114220
v -0.444130 0.153137 0.154217
v -0.338852 0.105002 -0.262095
v -0.263934 -0.230553 -0.227974
v 0.046957 -0.079903 -0.491670
v 0.216907 -0.079903 -0.518608
v 0.046957 -0.268107 -0.512374
v -0.122333 -0.079903 -0.516662
v 0.046957 0.065439 -0.399506
v 0.191859 0.082581 -0.454075
v 0.218366 -0.272110 -0.526687
v -0.091486 -0.235145 -0.436385
v -0.110145 0.096262 -0.487498
v 0.189801 -0.398879 0.239818
v 0.046957 -0.382401 0.223404
v -0.070685 -0.346097 0.187241
v 0.341426 -0.410102 -0.243449
v 0.399364 -0.475070 -0.077913
v 0.392899 -0.467821 0.118406
v 0.175738 -0.369425 -0.366305
v 0.046957 -0.419966 -0.416648
v -0.081794 -0.369364 -0.366243
v -0.202796 -0.359961 0.060883
v -0.237372 -0.398733 -0.077913
v -0.205717 -0.363237 -0.218456
v 0.366542 0.278460 -0.258469
v 0.398300 0.314071 -0.077913
v 0.339632 0.248285 0.086551
v 0.193448 0.246711 0.247425
v 0.046957 0.244790 0.245512
v -0.078872 0.203438 0.204322
v -0.282304 0.289311 0.108430
v -0.308831 0.319056 -0.077913
v -0.227279 0.227609 -0.231350
v 0.185802 0.230696 -0.387299
v 0.046957 0.231402 -0.388002
v -0.083710 0.213570 -0.370239
v 0.361919 -0.258391 0.273887
v 0.387401 -0.079903 0.302349
v 0.318749 0.072669 0.225668
v 0.311852 -0.228333 -0.373789
v 0.317720 -0.079903 -0.380344
v 0.275681 0.046812 -0.333387
v -0.280866 -0.266113 0.288252
v -0.292620 -0.079903 0.301381
v -0.261756 0.094834 0.266907
v -0.198471 -0.216646 -0.352046
v -0.245977 -0.079903 -0.405109
v -0.243979 0.084162 -0.402878
v 0.269665 -0.329634 -0.326668
v 0.295889 -0.359039 0.200134
v -0.168115 -0.321072 0.162315
v -0.178796 -0.333049 -0.330070
v 0.272611 0.173132 -0.329959
v 0.282308 0.184006 0.184965
v -0.207459 0.205385 0.206260
v -0.183490 0.178507 -0.335314
vn -0.157598 -0.977203 0.142003
vn -0.052797 -0.922208 -0.383038
vn 0.307840 -0.829737 -0.465560
vn 0.153020 -0.988098 -0.014985
vn 0.628803 -0.528642 -0.570147
vn 0.642384 -0.743797 -0.184545
vn -0.090915 -0.698172 -0.710105
vn 0.402112 -0.670278 -0.623676
vn 0.647664 -0.491958 -0.581774
vn 0.041749 -0.909787 0.412915
vn -0.271706 -0.865566 0.420637
vn 0.045656 -0.703116 0.709555
vn -0.274056 -0.716666 0.641255
vn 0.519639 -0.750023 0.409101
vn 0.339854 -0.605090 0.719962
vn -0.376385 -0.822138 0.427045
vn -0.446455 -0.875637 0.184149
vn -0.426069 -0.852046 0.304086
vn -0.674947 -0.737785 0.006653
vn -0.287851 -0.787713 0.544603
vn -0.206854 -0.885830 0.415326
vn -0.484542 -0.808435 -0.334025
vn -0.507218 -0.539079 -0.672353
vn -0.761956 -0.538011 -0.360454
vn -0.700400 -0.422803 -0.574999
vn -0.230476 0.969390 0.084567
vn 0.295450 0.947661 0.121006
vn 0.303140 0.770226 -0.561052
vn -0.224982 0.850002 -0.476241
vn 0.276772 0.402509 -0.872524
vn -0.079012 0.485733 -0.870510
vn 0.804682 0.588580 0.077578
vn 0.707266 0.427686 -0.562853
vn 0.620167 0.200781 -0.758293
vn -0.425520 0.814783 -0.393750
vn -0.290597 0.952269 -0.093142
vn -0.435774 0.755730 -0.488784
vn -0.453413 0.863552 -0.220527
vn -0.262368 0.640431 -0.721763
vn -0.471938 0.702658 -0.532456
vn -0.172979 0.903836 0.391339
vn -0.114048 0.887326 0.446760
vn -0.130711 0.653859 0.745232
vn -0.102481 0.683584 0.722617
vn -0.368084 0.836848 0.405164
vn -0.187902 0.633900 0.750206
vn 0.253456 0.817682 0.516831
vn 0.685049 0.524400 0.505631
vn 0.277963 0.694937 0.663106
vn 0.682638 0.500961 0.531968
vn 0.980804 0.091891 -0.171972
vn 0.955229 -0.167150 -0.244026
vn 0.839106 -0.164251 -0.518509
vn 0.865627 0.037904 -0.499222
vn 0.817621 -0.267678 -0.509720
vn 0.814753 0.124516 -0.566271
vn 0.830714 0.118076 -0.543992
vn 0.982238 0.186590 -0.019440
vn 0.719382 0.225654 -0.656880
vn 0.868343 0.322977 0.376324
vn 0.937986 0.198523 0.284097
vn 0.740349 0.448561 0.500595
vn 0.780541 0.131779 0.611011
vn 0.901578 -0.235542 0.362804
vn 0.602985 -0.381237 0.700736
vn -0.223762 -0.040010 0.973815
vn -0.236183 -0.458113 0.856929
vn 0.103671 -0.517472 0.849361
vn 0.212378 0.030152 0.976714
vn 0.229987 0.515244 0.825587
vn -0.161046 0.396832 0.903623
vn -0.137211 0.392376 0.909482
vn -0.121860 -0.045045 0.991516
vn -0.380169 0.364757 0.849910
vn -0.489517 -0.064852 0.869564
vn -0.141911 -0.492752 0.858486
vn -0.408032 -0.565844 0.716422
vn -0.931120 -0.238411 -0.275979
vn -0.830683 -0.511246 -0.220313
vn -0.756005 -0.618519 0.214087
vn -0.929411 -0.164892 0.330088
vn -0.818751 0.369152 0.439711
vn -0.911100 0.314982 -0.265816
vn -0.793329 0.266762 -0.547166
vn -0.854793 -0.237678 -0.461318
vn -0.686178 0.337321 -0.644459
vn -0.756859 -0.209265 -0.619129
vn -0.825983 -0.381603 -0.414838
vn -0.723808 -0.391949 -0.567827
vn -0.052950 0.175359 -0.983062
vn 0.030488 0.353099 -0.935057
vn 0.305856 0.367260 -0.878353
vn 0.382153 0.245399 -0.890896
vn 0.439741 -0.362743 -0.821589
vn -0.156774 -0.355022 -0.921598
vn -0.459548 -0.366619 -0.808924
vn -0.301187 -0.053285 -0.952055
vn -0.146031 0.415265 -0.897885
usemtl (null)
s 1
f 1//1 5//2 6//3 2//4
f 2//4 6//3 58//5 59//6
f 5//2 62//7 61//8 6//3
f 6//3 61//8 91//9 58//5
f 1//1 2//4 7//10 3//11
f 3//11 7//10 55//12 56//13
f 2//4 59//6 60//14 7//10
f 7//10 60//14 92//15 55//12
f 1//1 3//11 8//16 4//17
f 4//17 8//16 64//18 65//19
f 3//11 56//13 57//20 8//16
f 8//16 57//20 93//21 64//18
f 1//1 4//17 9//22 5//2
f 5//2 9//22 63//23 62//7
f 4//17 65//19 66//24 9//22
f 9//22 66//24 94//25 63//23
f 10//26 14//27 15//28 11//29
f 11//29 15//28 76//30 77//31
f 14//27 68//32 67//33 15//28
f 15//28 67//33 95//34 76//30
f 10//26 11//29 16//35 12//36
f 12//36 16//35 75//37 74//38
f 11//29 77//31 78//39 16//35
f 16//35 78//39 98//40 75//37
f 10//26 12//36 17//41 13//42
f 13//42 17//41 72//43 71//44
f 12//36 74//38 73//45 17//41
f 17//41 73//45 97//46 72//43
f 10//26 13//42 18//47 14//27
f 14//27 18//47 69//48 68//32
f 13//42 71//44 70//49 18//47
f 18//47 70//49 96//50 69//48
f 19//51 23//52 24//53 20//54
f 20//54 24//53 82//55 83//56
f 23//52 59//6 58//5 24//53
f 24//53 58//5 91//9 82//55
f 19//51 20//54 25//57 21//58
f 21//58 25//57 67//33 68//32
f 20//54 83//56 84//59 25//57
f 25//57 84//59 95//34 67//33
f 19//51 21//58 26//60 22//61
f 22//61 26//60 81//62 80//63
f 21//58 68//32 69//48 26//60
f 26//60 69//48 96//50 81//62
f 19//51 22//61 27//64 23//52
f 23//52 27//64 60//14 59//6
f 22//61 80//63 79//65 27//64
f 27//64 79//65 92//15 60//14
f 28//66 32//67 33//68 29//69
f 29//69 33//68 79//65 80//63
f 32//67 56//13 55//12 33//68
f 33//68 55//12 92//15 79//65
f 28//66 29//69 34//70 30//71
f 30//71 34//70 70//49 71//44
f 29//69 80//63 81//62 34//70
f 34//70 81//62 96//50 70//49
f 28//66 30//71 35//72 31//73
f 31//73 35//72 87//74 86//75
f 30//71 71//44 72//43 35//72
f 35//72 72//43 97//46 87//74
f 28//66 31//73 36//76 32//67
f 32//67 36//76 57//20 56//13
f 31//73 86//75 85//77 36//76
f 36//76 85//77 93//21 57//20
f 37//78 41//79 42//80 38//81
f 38//81 42//80 85//77 86//75
f 41//79 65//19 64//18 42//80
f 42//80 64//18 93//21 85//77
f 37//78 38//81 43//82 39//83
f 39//83 43//82 73//45 74//38
f 38//81 86//75 87//74 43//82
f 43//82 87//74 97//46 73//45
f 37//78 39//83 44//84 40//85
f 40//85 44//84 90//86 89//87
f 39//83 74//38 75//37 44//84
f 44//84 75//37 98//40 90//86
f 37//78 40//85 45//88 41//79
f 41//79 45//88 66//24 65//19
f 40//85 89//87 88//89 45//88
f 45//88 88//89 94//25 66//24
f 46//90 50//91 51//92 47//93
f 47//93 51//92 84//59 83//56
f 50//91 77//31 76//30 51//92
f 51//92 76//30 95//34 84//59
f 46//90 47//93 52//94 48//95
f 48//95 52//94 61//8 62//7
f 47//93 83//56 82//55 52//94
f 52//94 82//55 91//9 61//8
f 46//90 48//95 53//96 49//97
f 49//97 53//96 88//89 89//87
f 48//95 62//7 63//23 53//96
f 53//96 63//23 94//25 88//89
f 46//90 49//97 54//98 50//91
f 50//91 54//98 78//39 77//31
f 49//97 89//87 90//86 54//98
f 54//98 90//86 98//40 78//39
