# Blender v2.58 (sub 0) OBJ File: 'factory.blend'
# www.blender.org
mtllib factory.mtl
o Cylinder
v -0.498437 -2.004392 -1.625239
v 0.498437 -2.004392 -1.625239
v 1.997639 -2.004392 -0.496120
v 1.997639 -2.004392 0.496121
v 0.498437 -2.004392 1.625239
v -0.498438 -2.004392 1.625239
v -1.997639 -2.004392 0.496120
v -1.997639 -2.004392 -0.496120
v -0.498437 2.004392 -1.625239
v 0.498437 2.004392 -1.625239
v 1.997639 2.004392 -0.496121
v 1.997639 2.004392 0.496120
v 0.498437 2.004392 1.625239
v -0.498438 2.004392 1.625239
v -1.997640 2.004392 0.496119
v -1.997638 2.004392 -0.496122
v -0.000000 -2.004392 -0.000000
v -0.000000 2.004392 -0.000000
v 0.498437 -1.537526 -1.625239
v 0.498437 -1.153414 -1.625239
v 0.498437 1.153414 -1.625239
v 0.498437 1.537526 -1.625239
v -0.498437 -1.537526 -1.625239
v -0.498437 -1.153414 -1.625239
v -0.498437 1.153414 -1.625239
v -0.498437 1.537526 -1.625239
v 1.997639 -1.537526 -0.496121
v 1.997639 -1.153414 -0.496121
v 1.997639 1.153414 -0.496121
v 1.997639 1.537526 -0.496121
v 1.997639 -1.537526 0.496120
v 1.997639 -1.153414 0.496120
v 1.997639 1.153414 0.496120
v 1.997639 1.537526 0.496120
v 0.498437 -1.537526 1.625239
v 0.498437 -1.153414 1.625239
v 0.498437 1.153414 1.625239
v 0.498437 1.537526 1.625239
v -0.498438 -1.537526 1.625239
v -0.498438 -1.153414 1.625239
v -0.498438 1.153414 1.625239
v -0.498438 1.537526 1.625239
v -1.997639 -1.537526 0.496120
v -1.997639 -1.153414 0.496120
v -1.997640 1.153414 0.496120
v -1.997640 1.537526 0.496120
v -1.997639 -1.537526 -0.496121
v -1.997639 -1.153414 -0.496121
v -1.997638 1.153414 -0.496121
v -1.997638 1.537526 -0.496121
v -0.411022 -1.537526 -1.340206
v -1.647295 -1.537526 -0.409112
v -0.411022 -1.153414 -1.340206
v -1.647295 -1.153414 -0.409112
v -1.647295 1.153414 -0.409112
v -0.411022 1.153414 -1.340206
v -1.647295 1.537526 -0.409112
v -0.411022 1.537526 -1.340206
v -1.647296 1.537526 0.409111
v -1.647296 1.153414 0.409111
v -1.647296 -1.153414 0.409111
v -1.647296 -1.537526 0.409111
v -0.411022 1.537526 1.340206
v -0.411022 1.153414 1.340206
v -0.411022 -1.153414 1.340206
v -0.411022 -1.537526 1.340206
v 0.411022 1.537526 1.340206
v 0.411022 1.153414 1.340206
v 0.411022 -1.153414 1.340206
v 0.411022 -1.537526 1.340206
v 1.647295 1.537526 0.409111
v 1.647295 1.153414 0.409111
v 1.647295 -1.153414 0.409111
v 1.647295 -1.537526 0.409111
v 1.647295 1.537526 -0.409112
v 1.647295 1.153414 -0.409112
v 1.647295 -1.153414 -0.409112
v 1.647295 -1.537526 -0.409112
v 0.411022 1.537526 -1.340207
v 0.411022 1.153414 -1.340207
v 0.411022 -1.153414 -1.340207
v 0.411022 -1.537526 -1.340206
vn -0.000000 -1.000000 -0.000000
vn -0.000000 1.000000 -0.000000
vn -0.000000 0.000000 -1.000000
vn -0.000001 -0.000000 -1.000000
vn 0.601607 -0.000000 -0.798792
vn 1.000000 -0.000000 0.000000
vn 0.601607 -0.000000 0.798792
vn -0.000000 0.000000 1.000000
vn -0.601607 0.000000 0.798792
vn -0.601608 0.000000 0.798792
vn -1.000000 -0.000000 -0.000000
vn -1.000000 0.000000 -0.000001
vn -0.601607 -0.000000 -0.798792
vn 0.000001 1.000000 0.000001
vn 0.000001 -1.000000 0.000001
vn 0.000001 -1.000000 0.000000
vn 0.000001 1.000000 0.000000
vn 0.000001 -1.000000 -0.000001
vn 0.000001 1.000000 -0.000001
vn 0.000000 -1.000000 -0.000001
vn 0.000000 1.000000 -0.000001
vn -0.000001 -1.000000 -0.000001
vn -0.000001 1.000000 -0.000001
vn -0.000001 -1.000000 0.000000
vn -0.000001 1.000000 -0.000000
vn -0.000001 -1.000000 0.000001
vn -0.000001 1.000000 0.000001
vn 0.000000 -1.000000 0.000001
vn 0.000000 1.000000 0.000001
usemtl (null)
s off
f 17//1 1//1 2//1
f 18//2 10//2 9//2
f 17//1 2//1 3//1
f 18//2 11//2 10//2
f 17//1 3//1 4//1
f 18//2 12//2 11//2
f 17//1 4//1 5//1
f 18//2 13//2 12//2
f 17//1 5//1 6//1
f 18//2 14//2 13//2
f 17//1 6//1 7//1
f 18//2 15//2 14//2
f 17//1 7//1 8//1
f 18//2 16//2 15//2
f 8//1 1//1 17//1
f 18//2 9//2 16//2
f 1//3 23//3 19//3 2//3
f 24//3 25//3 21//3 20//3
f 26//4 9//4 10//4 22//4
f 2//5 19//5 27//5 3//5
f 20//5 21//5 29//5 28//5
f 22//5 10//5 11//5 30//5
f 3//6 27//6 31//6 4//6
f 28//6 29//6 33//6 32//6
f 30//6 11//6 12//6 34//6
f 4//7 31//7 35//7 5//7
f 32//7 33//7 37//7 36//7
f 34//7 12//7 13//7 38//7
f 5//8 35//8 39//8 6//8
f 36//8 37//8 41//8 40//8
f 38//8 13//8 14//8 42//8
f 6//9 39//9 43//9 7//9
f 40//10 41//10 45//10 44//10
f 42//10 14//10 15//10 46//10
f 7//11 43//11 47//11 8//11
f 44//12 45//12 49//12 48//12
f 46//12 15//12 16//12 50//12
f 9//13 26//13 50//13 16//13
f 25//13 24//13 48//13 49//13
f 23//13 1//13 8//13 47//13
f 23//14 47//14 52//14 51//14
f 48//1 24//1 53//1 54//1
f 25//2 49//2 55//2 56//2
f 50//15 26//15 58//15 57//15
f 46//16 50//16 57//16 59//16
f 49//2 45//2 60//2 55//2
f 44//1 48//1 54//1 61//1
f 47//17 43//17 62//17 52//17
f 42//18 46//18 59//18 63//18
f 45//2 41//2 64//2 60//2
f 40//1 44//1 61//1 65//1
f 43//19 39//19 66//19 62//19
f 38//20 42//20 63//20 67//20
f 41//2 37//2 68//2 64//2
f 36//1 40//1 65//1 69//1
f 39//21 35//21 70//21 66//21
f 34//22 38//22 67//22 71//22
f 37//2 33//2 72//2 68//2
f 32//1 36//1 69//1 73//1
f 35//23 31//23 74//23 70//23
f 30//24 34//24 71//24 75//24
f 33//2 29//2 76//2 72//2
f 28//1 32//1 73//1 77//1
f 31//25 27//25 78//25 74//25
f 22//26 30//26 75//26 79//26
f 29//2 21//2 80//2 76//2
f 20//1 28//1 77//1 81//1
f 27//27 19//27 82//27 78//27
f 26//28 22//28 79//28 58//28
f 21//2 25//2 56//2 80//2
f 24//1 20//1 81//1 53//1
f 19//29 23//29 51//29 82//29
f 53//13 51//13 52//13 54//13
f 58//13 56//13 55//13 57//13
f 60//12 59//12 57//12 55//12
f 62//12 61//12 54//12 52//12
f 64//10 63//10 59//10 60//10
f 66//9 65//9 61//9 62//9
f 68//8 67//8 63//8 64//8
f 70//8 69//8 65//8 66//8
f 72//7 71//7 67//7 68//7
f 74//7 73//7 69//7 70//7
f 76//6 75//6 71//6 72//6
f 78//6 77//6 73//6 74//6
f 80//5 79//5 75//5 76//5
f 82//5 81//5 77//5 78//5
f 56//4 58//4 79//4 80//4
f 51//3 53//3 81//3 82//3
