# Blender v2.58 (sub 0) OBJ File: 'hull.blend'
# www.blender.org
mtllib hull.mtl
o Cylinder
v 0.000000 -1.500000 -1.000000
v 0.195090 -1.500000 -0.980785
v 0.382683 -1.500000 -0.923880
v 0.555570 -1.500000 -0.831470
v 0.707107 -1.500000 -0.707107
v 0.831470 -1.500000 -0.555570
v 0.923880 -1.500000 -0.382683
v 0.980785 -1.500000 -0.195090
v 1.000000 -1.500000 -0.000000
v 0.980785 -1.500000 0.195090
v 0.923880 -1.500000 0.382683
v 0.831470 -1.500000 0.555570
v 0.707107 -1.500000 0.707107
v 0.555570 -1.500000 0.831470
v 0.382683 -1.500000 0.923880
v 0.195090 -1.500000 0.980785
v -0.000000 -1.500000 1.000000
v -0.195091 -1.500000 0.980785
v -0.382684 -1.500000 0.923879
v -0.555571 -1.500000 0.831469
v -0.707107 -1.500000 0.707106
v -0.831470 -1.500000 0.555570
v -0.923880 -1.500000 0.382683
v -0.980785 -1.500000 0.195089
v -1.000000 -1.500000 -0.000001
v -0.980785 -1.500000 -0.195091
v -0.923879 -1.500000 -0.382684
v -0.831469 -1.500000 -0.555571
v -0.707106 -1.500000 -0.707108
v -0.555569 -1.500000 -0.831470
v -0.382682 -1.500000 -0.923880
v -0.195089 -1.500000 -0.980786
v 0.000002 1.500000 -1.000000
v 0.195092 1.500000 -0.980785
v 0.382685 1.500000 -0.923879
v 0.555572 1.500000 -0.831469
v 0.707108 1.500000 -0.707105
v 0.831471 1.500000 -0.555569
v 0.923880 1.500000 -0.382682
v 0.980786 1.500000 -0.195088
v 1.000000 1.500000 0.000002
v 0.980785 1.500000 0.195092
v 0.923879 1.500000 0.382685
v 0.831469 1.500000 0.555571
v 0.707106 1.500000 0.707107
v 0.555570 1.500000 0.831470
v 0.382684 1.500000 0.923880
v 0.195091 1.500000 0.980785
v 0.000001 1.500000 1.000000
v -0.195089 1.500000 0.980786
v -0.382682 1.500000 0.923880
v -0.555568 1.500000 0.831471
v -0.707105 1.500000 0.707109
v -0.831468 1.500000 0.555573
v -0.923878 1.500000 0.382686
v -0.980785 1.500000 0.195094
v -1.000000 1.500000 0.000004
v -0.980786 1.500000 -0.195086
v -0.923881 1.500000 -0.382679
v -0.831473 1.500000 -0.555566
v -0.707111 1.500000 -0.707103
v -0.555575 1.500000 -0.831466
v -0.382689 1.500000 -0.923877
v -0.195097 1.500000 -0.980784
v 0.000000 -1.500000 0.000000
v 0.000000 1.500000 0.000000
vn -0.000000 -1.000000 0.000000
vn 0.000000 1.000000 -0.000000
vn 0.000000 -0.685690 -0.727866
vn 0.000000 0.685690 -0.727866
vn 0.142003 0.685690 -0.713889
vn 0.142003 -0.685690 -0.713889
vn 0.278542 0.685690 -0.672475
vn 0.278542 -0.685690 -0.672475
vn 0.404370 0.685690 -0.605213
vn 0.404370 -0.685690 -0.605213
vn 0.514695 0.685690 -0.514664
vn 0.514695 -0.685690 -0.514664
vn 0.605213 0.685690 -0.404370
vn 0.605213 -0.685690 -0.404370
vn 0.672475 0.685690 -0.278542
vn 0.672475 -0.685690 -0.278542
vn 0.713889 0.685690 -0.142003
vn 0.713889 -0.685690 -0.142003
vn 0.727866 0.685690 0.000000
vn 0.727866 -0.685690 0.000000
vn 0.713889 0.685690 0.142003
vn 0.713889 -0.685690 0.142003
vn 0.672475 0.685690 0.278542
vn 0.672475 -0.685690 0.278542
vn 0.605213 0.685690 0.404370
vn 0.605213 -0.685690 0.404370
vn 0.514664 0.685690 0.514664
vn 0.514664 -0.685690 0.514664
vn 0.404370 0.685690 0.605213
vn 0.404370 -0.685690 0.605213
vn 0.278542 0.685690 0.672475
vn 0.278542 -0.685690 0.672475
vn 0.142003 0.685690 0.713889
vn 0.142003 -0.685690 0.713889
vn 0.000000 0.685690 0.727866
vn 0.000000 -0.685690 0.727866
vn -0.142003 0.685690 0.713889
vn -0.142003 -0.685690 0.713889
vn -0.278542 0.685690 0.672475
vn -0.278542 -0.685690 0.672475
vn -0.404370 0.685690 0.605213
vn -0.404370 -0.685690 0.605213
vn -0.514664 0.685690 0.514695
vn -0.514664 -0.685690 0.514695
vn -0.605213 0.685690 0.404370
vn -0.605213 -0.685690 0.404370
vn -0.672475 0.685690 0.278542
vn -0.672475 -0.685690 0.278542
vn -0.713889 0.685690 0.142003
vn -0.713889 -0.685690 0.142003
vn -0.727866 0.685690 0.000000
vn -0.727866 -0.685690 0.000000
vn -0.713889 0.685690 -0.141972
vn -0.713889 -0.685690 -0.142003
vn -0.672475 0.685690 -0.278542
vn -0.672475 -0.685690 -0.278542
vn -0.605213 0.685690 -0.404370
vn -0.605213 -0.685690 -0.404370
vn -0.514695 0.685690 -0.514664
vn -0.514695 -0.685690 -0.514664
vn -0.404370 0.685690 -0.605213
vn -0.404370 -0.685690 -0.605213
vn -0.278542 0.685690 -0.672475
vn -0.278542 -0.685690 -0.672475
vn -0.142003 0.685690 -0.713889
vn -0.142003 -0.685690 -0.713889
usemtl (null)
s off
f 65//1 1//1 2//1
f 66//2 34//2 33//2
f 65//1 2//1 3//1
f 66//2 35//2 34//2
f 65//1 3//1 4//1
f 66//2 36//2 35//2
f 65//1 4//1 5//1
f 66//2 37//2 36//2
f 65//1 5//1 6//1
f 66//2 38//2 37//2
f 65//1 6//1 7//1
f 66//2 39//2 38//2
f 65//1 7//1 8//1
f 66//2 40//2 39//2
f 65//1 8//1 9//1
f 66//2 41//2 40//2
f 65//1 9//1 10//1
f 66//2 42//2 41//2
f 65//1 10//1 11//1
f 66//2 43//2 42//2
f 65//1 11//1 12//1
f 66//2 44//2 43//2
f 65//1 12//1 13//1
f 66//2 45//2 44//2
f 65//1 13//1 14//1
f 66//2 46//2 45//2
f 65//1 14//1 15//1
f 66//2 47//2 46//2
f 65//1 15//1 16//1
f 66//2 48//2 47//2
f 65//1 16//1 17//1
f 66//2 49//2 48//2
f 65//1 17//1 18//1
f 66//2 50//2 49//2
f 65//1 18//1 19//1
f 66//2 51//2 50//2
f 65//1 19//1 20//1
f 66//2 52//2 51//2
f 65//1 20//1 21//1
f 66//2 53//2 52//2
f 65//1 21//1 22//1
f 66//2 54//2 53//2
f 65//1 22//1 23//1
f 66//2 55//2 54//2
f 65//1 23//1 24//1
f 66//2 56//2 55//2
f 65//1 24//1 25//1
f 66//2 57//2 56//2
f 65//1 25//1 26//1
f 66//2 58//2 57//2
f 65//1 26//1 27//1
f 66//2 59//2 58//2
f 65//1 27//1 28//1
f 66//2 60//2 59//2
f 65//1 28//1 29//1
f 66//2 61//2 60//2
f 65//1 29//1 30//1
f 66//2 62//2 61//2
f 65//1 30//1 31//1
f 66//2 63//2 62//2
f 65//1 31//1 32//1
f 66//2 64//2 63//2
f 32//1 1//1 65//1
f 66//2 33//2 64//2
s 1
f 1//3 33//4 34//5 2//6
f 2//6 34//5 35//7 3//8
f 3//8 35//7 36//9 4//10
f 4//10 36//9 37//11 5//12
f 5//12 37//11 38//13 6//14
f 6//14 38//13 39//15 7//16
f 7//16 39//15 40//17 8//18
f 8//18 40//17 41//19 9//20
f 9//20 41//19 42//21 10//22
f 10//22 42//21 43//23 11//24
f 11//24 43//23 44//25 12//26
f 12//26 44//25 45//27 13//28
f 13//28 45//27 46//29 14//30
f 14//30 46//29 47//31 15//32
f 15//32 47//31 48//33 16//34
f 16//34 48//33 49//35 17//36
f 17//36 49//35 50//37 18//38
f 18//38 50//37 51//39 19//40
f 19//40 51//39 52//41 20//42
f 20//42 52//41 53//43 21//44
f 21//44 53//43 54//45 22//46
f 22//46 54//45 55//47 23//48
f 23//48 55//47 56//49 24//50
f 24//50 56//49 57//51 25//52
f 25//52 57//51 58//53 26//54
f 26//54 58//53 59//55 27//56
f 27//56 59//55 60//57 28//58
f 28//58 60//57 61//59 29//60
f 29//60 61//59 62//61 30//62
f 30//62 62//61 63//63 31//64
f 31//64 63//63 64//65 32//66
f 33//4 1//3 32//66 64//65
