# Blender v2.58 (sub 0) OBJ File: 'pvcell.blend'
# www.blender.org
mtllib pvcell.mtl
o panel
v -2.964378 -0.445335 0.364837
v -0.373416 -0.445335 2.955799
v -2.964378 -0.005819 2.955798
v -2.964377 0.438137 0.364836
v -0.373416 0.438137 2.955799
v -2.964378 -0.001380 2.955798
v -2.964377 0.458137 0.364836
v -0.373416 0.458137 2.955799
v -2.964378 0.018620 2.955798
v -2.964378 -0.425335 0.364837
v -0.373416 -0.425335 2.955799
v -2.964378 0.014181 2.955798
v 0.364837 -0.445335 2.964378
v 2.955799 -0.445335 0.373416
v 2.955798 -0.005819 2.964378
v 0.364836 0.438137 2.964378
v 2.955798 0.438137 0.373416
v 2.955798 -0.001380 2.964378
v 0.364836 0.458137 2.964378
v 2.955798 0.458137 0.373416
v 2.955798 0.018620 2.964378
v 0.364837 -0.425335 2.964378
v 2.955799 -0.425335 0.373416
v 2.955798 0.014181 2.964378
v 2.964378 -0.445335 -0.364837
v 0.373416 -0.445335 -2.955799
v 2.964378 -0.005819 -2.955798
v 2.964378 0.438137 -0.364836
v 0.373416 0.438137 -2.955798
v 2.964378 -0.001380 -2.955798
v 2.964378 0.458137 -0.364836
v 0.373416 0.458137 -2.955798
v 2.964378 0.018620 -2.955798
v 2.964378 -0.425335 -0.364837
v 0.373416 -0.425335 -2.955799
v 2.964378 0.014181 -2.955798
v -0.364836 -0.445335 -2.964378
v -2.955799 -0.445335 -0.373416
v -2.955798 -0.005819 -2.964379
v -0.364836 0.438137 -2.964378
v -2.955798 0.438137 -0.373416
v -2.955798 -0.001380 -2.964378
v -0.364836 0.458137 -2.964378
v -2.955798 0.458137 -0.373416
v -2.955798 0.018620 -2.964378
v -0.364836 -0.425335 -2.964378
v -2.955799 -0.425335 -0.373416
v -2.955798 0.014181 -2.964379
v 2.820800 -0.470914 -0.524330
v 2.822235 -0.239042 -0.024329
v -2.953967 -0.239042 -0.024330
v -2.952530 -0.470914 -0.524330
v 2.283579 -0.470914 -1.061360
v 2.789370 -0.239042 -0.561360
v -2.774651 -0.239042 -0.561360
v -2.268859 -0.470914 -1.061360
v 1.807055 -0.470914 -1.604784
v 2.282768 -0.239042 -1.104784
v -2.268049 -0.239042 -1.104784
v -1.792335 -0.470914 -1.604784
v 1.257039 -0.470914 -2.141815
v 1.792341 -0.239042 -1.641814
v -1.792341 -0.239042 -1.641815
v -1.257038 -0.470914 -2.141815
v 0.747958 -0.470914 -2.670325
v 1.240804 -0.239042 -2.170325
v -1.240804 -0.239042 -2.170325
v -0.747957 -0.470914 -2.670325
v 0.727499 -0.470914 2.648295
v 1.220345 -0.239042 2.148295
v -1.261263 -0.239042 2.148294
v -0.768416 -0.470914 2.648295
v 1.236580 -0.470914 2.119784
v 1.771883 -0.239042 1.619784
v -1.812799 -0.239042 1.619784
v -1.277497 -0.470914 2.119784
v 1.771877 -0.470914 1.582754
v 2.247591 -0.239042 1.082754
v -2.303226 -0.239042 1.082753
v -1.827514 -0.470914 1.582754
v 2.248401 -0.470914 1.039330
v 2.754193 -0.239042 0.539330
v -2.809828 -0.239042 0.539329
v -2.304037 -0.470914 1.039330
v 2.932072 -0.470914 0.502299
v 2.933508 -0.239042 0.002299
v -2.842693 -0.239042 0.002299
v -2.841259 -0.470914 0.502299
v 2.933508 -0.219042 0.002299
v -2.842693 -0.219042 0.002299
v -2.841259 -0.450914 0.502299
v 2.932072 -0.450914 0.502299
v 2.754193 -0.219042 0.539330
v -2.809828 -0.219042 0.539329
v -2.304037 -0.450914 1.039330
v 2.248401 -0.450914 1.039330
v 2.247591 -0.219042 1.082754
v -2.303226 -0.219042 1.082753
v -1.827514 -0.450914 1.582754
v 1.771877 -0.450914 1.582754
v 1.771883 -0.219042 1.619784
v -1.812799 -0.219042 1.619784
v -1.277497 -0.450914 2.119784
v 1.236580 -0.450914 2.119784
v 1.220345 -0.219042 2.148295
v -1.261263 -0.219042 2.148294
v -0.768416 -0.450914 2.648295
v 0.727499 -0.450914 2.648295
v -1.240804 -0.219042 -2.170325
v -0.747957 -0.450914 -2.670325
v 0.747958 -0.450914 -2.670325
v 1.240804 -0.219042 -2.170325
v -1.792341 -0.219042 -1.641815
v -1.257038 -0.450914 -2.141815
v 1.257039 -0.450914 -2.141815
v 1.792341 -0.219042 -1.641814
v -2.268049 -0.219042 -1.104784
v -1.792335 -0.450914 -1.604784
v 1.807055 -0.450914 -1.604784
v 2.282768 -0.219042 -1.104784
v -2.774651 -0.219042 -0.561360
v -2.268859 -0.450914 -1.061360
v 2.283579 -0.450914 -1.061360
v 2.789370 -0.219042 -0.561360
v -2.953967 -0.219042 -0.024330
v -2.952530 -0.450914 -0.524330
v 2.820800 -0.450914 -0.524330
v 2.822235 -0.219042 -0.024329
v 2.820800 0.470295 -0.524330
v 2.822235 0.238424 -0.024329
v -2.953967 0.238424 -0.024330
v -2.952530 0.470295 -0.524330
v 2.283579 0.470295 -1.061360
v 2.789370 0.238424 -0.561360
v -2.774651 0.238424 -0.561360
v -2.268859 0.470295 -1.061360
v 1.807055 0.470295 -1.604784
v 2.282768 0.238424 -1.104784
v -2.268049 0.238424 -1.104784
v -1.792335 0.470295 -1.604784
v 1.257039 0.470295 -2.141815
v 1.792341 0.238424 -1.641814
v -1.792341 0.238424 -1.641815
v -1.257038 0.470295 -2.141815
v 0.747958 0.470295 -2.670325
v 1.240804 0.238424 -2.170325
v -1.240804 0.238424 -2.170325
v -0.747957 0.470295 -2.670325
v 0.727499 0.470295 2.648295
v 1.220345 0.238424 2.148295
v -1.261263 0.238424 2.148294
v -0.768416 0.470295 2.648295
v 1.236580 0.470295 2.119784
v 1.771883 0.238424 1.619784
v -1.812799 0.238424 1.619784
v -1.277497 0.470295 2.119784
v 1.771877 0.470295 1.582754
v 2.247591 0.238424 1.082754
v -2.303226 0.238424 1.082753
v -1.827514 0.470295 1.582754
v 2.248401 0.470295 1.039330
v 2.754193 0.238424 0.539330
v -2.809828 0.238424 0.539329
v -2.304037 0.470295 1.039330
v 2.932072 0.470295 0.502299
v 2.933508 0.238424 0.002299
v -2.842693 0.238424 0.002299
v -2.841259 0.470295 0.502299
v 2.933508 0.218424 0.002299
v -2.842693 0.218424 0.002299
v -2.841259 0.450295 0.502299
v 2.932072 0.450295 0.502299
v 2.754193 0.218424 0.539330
v -2.809828 0.218424 0.539329
v -2.304037 0.450295 1.039330
v 2.248401 0.450295 1.039330
v 2.247591 0.218424 1.082754
v -2.303226 0.218424 1.082753
v -1.827514 0.450295 1.582754
v 1.771877 0.450295 1.582754
v 1.771883 0.218424 1.619784
v -1.812799 0.218424 1.619784
v -1.277497 0.450295 2.119784
v 1.236580 0.450295 2.119784
v 1.220345 0.218424 2.148295
v -1.261263 0.218424 2.148294
v -0.768416 0.450295 2.648295
v 0.727499 0.450295 2.648295
v -1.240804 0.218424 -2.170325
v -0.747957 0.450295 -2.670325
v 0.747958 0.450295 -2.670325
v 1.240804 0.218424 -2.170325
v -1.792341 0.218424 -1.641815
v -1.257038 0.450295 -2.141815
v 1.257039 0.450295 -2.141815
v 1.792341 0.218424 -1.641814
v -2.268049 0.218424 -1.104784
v -1.792335 0.450295 -1.604784
v 1.807055 0.450295 -1.604784
v 2.282768 0.218424 -1.104784
v -2.774651 0.218424 -0.561360
v -2.268859 0.450295 -1.061360
v 2.283579 0.450295 -1.061360
v 2.789370 0.218424 -0.561360
v -2.953967 0.218424 -0.024330
v -2.952530 0.450295 -0.524330
v 2.820800 0.450295 -0.524330
v 2.822235 0.218424 -0.024329
vn -0.321146 -0.588916 -0.741600
vn 0.741600 -0.588916 0.321146
vn -0.624195 -0.469802 0.624195
vn -0.320688 -0.502335 -0.802972
vn 0.802972 -0.502335 0.320688
vn -0.519364 -0.678579 0.519364
vn -0.321146 0.588916 -0.741600
vn 0.741600 0.588916 0.321146
vn -0.624195 0.469802 0.624195
vn -0.320688 0.502335 -0.802972
vn 0.802972 0.502335 0.320688
vn -0.519364 0.678579 0.519364
vn -0.741600 -0.588916 0.321146
vn 0.321146 -0.588916 -0.741600
vn 0.624195 -0.469802 0.624195
vn -0.802972 -0.502335 0.320688
vn 0.320688 -0.502335 -0.802972
vn 0.519364 -0.678579 0.519364
vn -0.741600 0.588916 0.321146
vn 0.321146 0.588916 -0.741600
vn 0.624195 0.469802 0.624195
vn -0.802972 0.502335 0.320688
vn 0.320688 0.502335 -0.802972
vn 0.519364 0.678579 0.519364
vn 0.321146 -0.588916 0.741600
vn -0.741600 -0.588916 -0.321146
vn 0.624195 -0.469802 -0.624195
vn 0.320688 -0.502335 0.802972
vn -0.802972 -0.502335 -0.320688
vn 0.519364 -0.678579 -0.519364
vn 0.321146 0.588916 0.741600
vn -0.741600 0.588916 -0.321146
vn 0.624195 0.469802 -0.624195
vn 0.320688 0.502335 0.802972
vn -0.802972 0.502335 -0.320688
vn 0.519364 0.678579 -0.519364
vn 0.741600 -0.588916 -0.321146
vn -0.321146 -0.588916 0.741600
vn -0.624195 -0.469802 -0.624195
vn 0.802972 -0.502335 -0.320688
vn -0.320688 -0.502335 0.802972
vn -0.519364 -0.678579 -0.519364
vn 0.741600 0.588916 -0.321146
vn -0.321146 0.588916 0.741600
vn -0.624195 0.469802 -0.624195
vn 0.802972 0.502335 -0.320688
vn -0.320688 0.502335 0.802972
vn -0.519364 0.678579 -0.519364
vn -0.557146 0.699728 0.447127
vn 0.557146 0.699728 0.447127
vn 0.604694 0.429060 -0.670980
vn -0.604694 0.429060 -0.670980
vn -0.324381 0.771172 0.547716
vn 0.324381 0.771172 0.547716
vn 0.813440 0.460982 -0.354625
vn -0.813440 0.460982 -0.354625
vn -0.335093 0.768364 0.545274
vn 0.335093 0.768364 0.545274
vn 0.808466 0.458754 -0.368603
vn -0.808466 0.458754 -0.368603
vn -0.314341 0.773797 0.549883
vn 0.314341 0.773797 0.549883
vn 0.817774 0.463118 -0.341655
vn -0.817774 0.463118 -0.341655
vn -0.328929 0.769982 0.546709
vn 0.328929 0.769982 0.546709
vn 0.811365 0.460036 -0.360546
vn -0.811365 0.460036 -0.360546
vn 0.328929 0.769982 -0.546709
vn -0.328929 0.769982 -0.546709
vn -0.811365 0.460036 0.360546
vn 0.811365 0.460036 0.360546
vn 0.314341 0.773797 -0.549883
vn -0.314341 0.773797 -0.549883
vn -0.817774 0.463118 0.341655
vn 0.817774 0.463118 0.341655
vn 0.335093 0.768364 -0.545274
vn -0.335093 0.768364 -0.545274
vn -0.808466 0.458754 0.368603
vn 0.808466 0.458754 0.368603
vn 0.324381 0.771172 -0.547716
vn -0.324381 0.771172 -0.547716
vn -0.813440 0.460982 0.354625
vn 0.813440 0.460982 0.354625
vn 0.557146 0.699728 -0.447127
vn -0.557146 0.699728 -0.447127
vn -0.604694 0.429060 0.670980
vn 0.604694 0.429060 0.670980
vn -0.558580 -0.699210 0.446150
vn 0.558580 -0.699210 0.446150
vn 0.602649 -0.429029 -0.672842
vn -0.602649 -0.429029 -0.672842
vn -0.732475 -0.623493 0.273293
vn 0.732475 -0.623493 0.273293
vn 0.287545 -0.455153 -0.842677
vn -0.287545 -0.455153 -0.842677
vn -0.726554 -0.626667 0.281716
vn 0.726554 -0.626667 0.281716
vn 0.300272 -0.453017 -0.839381
vn -0.300272 -0.453017 -0.839381
vn -0.737877 -0.620533 0.265358
vn 0.737877 -0.620533 0.265358
vn 0.275826 -0.457228 -0.845454
vn -0.275826 -0.457228 -0.845454
vn -0.729972 -0.624836 0.276864
vn 0.729972 -0.624836 0.276864
vn 0.292947 -0.454237 -0.841304
vn -0.292947 -0.454237 -0.841304
vn 0.292947 -0.454237 0.841304
vn 0.729972 -0.624836 -0.276864
vn -0.292947 -0.454237 0.841304
vn -0.729972 -0.624836 -0.276864
vn 0.275826 -0.457228 0.845454
vn 0.737877 -0.620533 -0.265358
vn -0.275826 -0.457228 0.845454
vn -0.737877 -0.620533 -0.265358
vn 0.300272 -0.453017 0.839381
vn 0.726554 -0.626667 -0.281716
vn -0.300272 -0.453017 0.839381
vn -0.726554 -0.626667 -0.281716
vn 0.287545 -0.455153 0.842677
vn 0.732475 -0.623493 -0.273293
vn -0.287545 -0.455153 0.842677
vn -0.732475 -0.623493 -0.273293
vn 0.602649 -0.429029 0.672842
vn 0.558580 -0.699210 -0.446150
vn -0.602649 -0.429029 0.672842
vn -0.558580 -0.699210 -0.446150
usemtl (null)
s 1
f 1//1 2//2 3//3
f 4//4 5//5 6//6
f 5//5 4//4 7//7 8//8
f 6//6 5//5 8//8 9//9
f 4//4 6//6 9//9 7//7
f 2//2 1//1 10//10 11//11
f 3//3 2//2 11//11 12//12
f 1//1 3//3 12//12 10//10
f 7//7 9//9 8//8
f 10//10 12//12 11//11
f 13//13 14//14 15//15
f 16//16 17//17 18//18
f 17//17 16//16 19//19 20//20
f 18//18 17//17 20//20 21//21
f 16//16 18//18 21//21 19//19
f 14//14 13//13 22//22 23//23
f 15//15 14//14 23//23 24//24
f 13//13 15//15 24//24 22//22
f 19//19 21//21 20//20
f 22//22 24//24 23//23
f 25//25 26//26 27//27
f 28//28 29//29 30//30
f 29//29 28//28 31//31 32//32
f 30//30 29//29 32//32 33//33
f 28//28 30//30 33//33 31//31
f 26//26 25//25 34//34 35//35
f 27//27 26//26 35//35 36//36
f 25//25 27//27 36//36 34//34
f 31//31 33//33 32//32
f 34//34 36//36 35//35
f 37//37 38//38 39//39
f 40//40 41//41 42//42
f 41//41 40//40 43//43 44//44
f 42//42 41//41 44//44 45//45
f 40//40 42//42 45//45 43//43
f 38//38 37//37 46//46 47//47
f 39//39 38//38 47//47 48//48
f 37//37 39//39 48//48 46//46
f 43//43 45//45 44//44
f 46//46 48//48 47//47
f 49//49 52//50 51//51 50//52
f 53//53 56//54 55//55 54//56
f 57//57 60//58 59//59 58//60
f 61//61 64//62 63//63 62//64
f 65//65 68//66 67//67 66//68
f 72//69 69//70 70//71 71//72
f 76//73 73//74 74//75 75//76
f 80//77 77//78 78//79 79//80
f 84//81 81//82 82//83 83//84
f 88//85 85//86 86//87 87//88
f 87//88 86//87 89//89 90//90
f 88//85 87//88 90//90 91//91
f 85//86 88//85 91//91 92//92
f 86//87 85//86 92//92 89//89
f 83//84 82//83 93//93 94//94
f 84//81 83//84 94//94 95//95
f 81//82 84//81 95//95 96//96
f 82//83 81//82 96//96 93//93
f 79//80 78//79 97//97 98//98
f 80//77 79//80 98//98 99//99
f 77//78 80//77 99//99 100//100
f 78//79 77//78 100//100 97//97
f 75//76 74//75 101//101 102//102
f 76//73 75//76 102//102 103//103
f 73//74 76//73 103//103 104//104
f 74//75 73//74 104//104 101//101
f 71//72 70//71 105//105 106//106
f 72//69 71//72 106//106 107//107
f 69//70 72//69 107//107 108//108
f 70//71 69//70 108//108 105//105
f 67//67 68//66 110//109 109//110
f 68//66 65//65 111//111 110//109
f 65//65 66//68 112//112 111//111
f 66//68 67//67 109//110 112//112
f 63//63 64//62 114//113 113//114
f 64//62 61//61 115//115 114//113
f 61//61 62//64 116//116 115//115
f 62//64 63//63 113//114 116//116
f 59//59 60//58 118//117 117//118
f 60//58 57//57 119//119 118//117
f 57//57 58//60 120//120 119//119
f 58//60 59//59 117//118 120//120
f 55//55 56//54 122//121 121//122
f 56//54 53//53 123//123 122//121
f 53//53 54//56 124//124 123//123
f 54//56 55//55 121//122 124//124
f 51//51 52//50 126//125 125//126
f 52//50 49//49 127//127 126//125
f 49//49 50//52 128//128 127//127
f 50//52 51//51 125//126 128//128
f 91//91 90//90 89//89 92//92
f 95//95 94//94 93//93 96//96
f 99//99 98//98 97//97 100//100
f 103//103 102//102 101//101 104//104
f 107//107 106//106 105//105 108//108
f 111//111 112//112 109//110 110//109
f 115//115 116//116 113//114 114//113
f 119//119 120//120 117//118 118//117
f 123//123 124//124 121//122 122//121
f 127//127 128//128 125//126 126//125
f 129//85 132//86 131//87 130//88
f 133//81 136//82 135//83 134//84
f 137//77 140//78 139//79 138//80
f 141//73 144//74 143//75 142//76
f 145//69 148//70 147//71 146//72
f 152//65 149//66 150//67 151//68
f 156//61 153//62 154//63 155//64
f 160//57 157//58 158//59 159//60
f 164//53 161//54 162//55 163//56
f 168//49 165//50 166//51 167//52
f 167//52 166//51 169//126 170//128
f 168//49 167//52 170//128 171//127
f 165//50 168//49 171//127 172//125
f 166//51 165//50 172//125 169//126
f 163//56 162//55 173//122 174//124
f 164//53 163//56 174//124 175//123
f 161//54 164//53 175//123 176//121
f 162//55 161//54 176//121 173//122
f 159//60 158//59 177//118 178//120
f 160//57 159//60 178//120 179//119
f 157//58 160//57 179//119 180//117
f 158//59 157//58 180//117 177//118
f 155//64 154//63 181//114 182//116
f 156//61 155//64 182//116 183//115
f 153//62 156//61 183//115 184//113
f 154//63 153//62 184//113 181//114
f 151//68 150//67 185//110 186//112
f 152//65 151//68 186//112 187//111
f 149//66 152//65 187//111 188//109
f 150//67 149//66 188//109 185//110
f 147//71 148//70 190//108 189//105
f 148//70 145//69 191//107 190//108
f 145//69 146//72 192//106 191//107
f 146//72 147//71 189//105 192//106
f 143//75 144//74 194//104 193//101
f 144//74 141//73 195//103 194//104
f 141//73 142//76 196//102 195//103
f 142//76 143//75 193//101 196//102
f 139//79 140//78 198//100 197//97
f 140//78 137//77 199//99 198//100
f 137//77 138//80 200//98 199//99
f 138//80 139//79 197//97 200//98
f 135//83 136//82 202//96 201//93
f 136//82 133//81 203//95 202//96
f 133//81 134//84 204//94 203//95
f 134//84 135//83 201//93 204//94
f 131//87 132//86 206//92 205//89
f 132//86 129//85 207//91 206//92
f 129//85 130//88 208//90 207//91
f 130//88 131//87 205//89 208//90
f 171//127 170//128 169//126 172//125
f 175//123 174//124 173//122 176//121
f 179//119 178//120 177//118 180//117
f 183//115 182//116 181//114 184//113
f 187//111 186//112 185//110 188//109
f 191//107 192//106 189//105 190//108
f 195//103 196//102 193//101 194//104
f 199//99 200//98 197//97 198//100
f 203//95 204//94 201//93 202//96
f 207//91 208//90 205//89 206//92
o structure
v -2.700000 -0.500000 0.500000
v -3.000000 -0.500000 0.500000
v -3.000000 -0.500000 -0.500000
v -2.700000 -0.500000 -0.500000
v -2.700001 0.500000 0.500000
v -3.000000 0.500000 0.499999
v -3.000000 0.500000 -0.500000
v -2.700000 0.500000 -0.500000
v -3.000000 -0.214242 0.500000
v -3.000000 0.000000 0.500000
v -3.000000 0.214242 0.500000
v -2.700000 -0.214242 0.500000
v -2.700001 0.000000 0.500000
v -2.700001 0.214242 0.500000
v -3.000000 -0.214242 -0.500000
v -3.000000 0.000000 -0.500000
v -3.000000 0.214242 -0.500000
v -2.700000 -0.214242 -0.500000
v -2.700000 0.000000 -0.500000
v -2.700000 0.214242 -0.500000
v -0.500004 0.214242 2.700000
v -0.500005 0.214242 3.000000
v -0.500004 0.500000 2.700000
v -0.500005 0.500000 3.000000
v -0.500001 -0.214242 3.000000
v -0.500001 -0.214242 2.700000
v -0.500001 -0.500000 2.700000
v -0.500001 -0.500000 3.000000
v -0.499999 -0.500000 -2.700000
v -0.499999 -0.500000 -3.000000
v 0.500000 -0.500000 -3.000000
v 0.500000 -0.500000 -2.700000
v -0.500000 0.500000 -2.700001
v -0.499999 0.500000 -3.000000
v 0.500000 0.500000 -3.000000
v 0.500000 0.500000 -2.700000
v -0.499999 -0.214242 -3.000000
v -0.499999 0.000000 -3.000000
v -0.499999 0.214242 -3.000000
v -0.499999 -0.214242 -2.700000
v -0.499999 0.000000 -2.700001
v -0.500000 0.214242 -2.700001
v 0.500000 -0.214242 -3.000000
v 0.500000 0.000000 -3.000000
v 0.500000 0.214242 -3.000000
v 0.500000 -0.214242 -2.700000
v 0.500000 0.000000 -2.700000
v 0.500000 0.214242 -2.700000
v -2.700000 0.214242 -0.500005
v -3.000000 0.214242 -0.500005
v -2.700000 0.500000 -0.500005
v -3.000000 0.500000 -0.500005
v -3.000000 -0.214242 -0.500001
v -2.700000 -0.214242 -0.500001
v -2.700000 -0.500000 -0.500001
v -3.000000 -0.500000 -0.500001
v 2.700000 -0.500000 -0.500000
v 3.000000 -0.500000 -0.499999
v 3.000000 -0.500000 0.500000
v 2.700000 -0.500000 0.500000
v 2.700001 0.500000 -0.500000
v 3.000000 0.500000 -0.499999
v 3.000000 0.500000 0.500000
v 2.700000 0.500000 0.500000
v 3.000000 -0.214242 -0.499999
v 3.000000 0.000000 -0.499999
v 3.000000 0.214242 -0.499999
v 2.700000 -0.214242 -0.500000
v 2.700001 0.000000 -0.500000
v 2.700001 0.214242 -0.500000
v 3.000000 -0.214242 0.500000
v 3.000000 0.000000 0.500000
v 3.000000 0.214242 0.500000
v 2.700000 -0.214242 0.500000
v 2.700000 0.000000 0.500000
v 2.700000 0.214242 0.500000
v 0.500004 0.214242 -2.700000
v 0.500005 0.214242 -3.000000
v 0.500004 0.500000 -2.700000
v 0.500005 0.500000 -3.000000
v 0.500001 -0.214242 -3.000000
v 0.500001 -0.214242 -2.700000
v 0.500001 -0.500000 -2.700000
v 0.500001 -0.500000 -3.000000
v 0.500000 -0.500000 2.700000
v 0.500000 -0.500000 3.000000
v -0.500000 -0.500000 3.000000
v -0.500000 -0.500000 2.700000
v 0.500000 0.500000 2.700001
v 0.499999 0.500000 3.000000
v -0.500000 0.500000 3.000000
v -0.500000 0.500000 2.700000
v 0.500000 -0.214242 3.000000
v 0.500000 0.000000 3.000000
v 0.499999 0.214242 3.000000
v 0.500000 -0.214242 2.700000
v 0.500000 0.000000 2.700001
v 0.500000 0.214242 2.700001
v -0.500000 -0.214242 3.000000
v -0.500000 0.000000 3.000000
v -0.500000 0.214242 3.000000
v -0.500000 -0.214242 2.700000
v -0.500000 0.000000 2.700000
v -0.500000 0.214242 2.700000
v 2.700000 0.214242 0.500004
v 3.000000 0.214242 0.500005
v 2.700000 0.500000 0.500004
v 3.000000 0.500000 0.500005
v 3.000000 -0.214242 0.500001
v 2.700000 -0.214242 0.500001
v 2.700000 -0.500000 0.500001
v 3.000000 -0.500000 0.500001
vn 0.000000 -1.000000 0.000000
vn -0.000000 1.000000 0.000000
vn -0.000001 -0.000000 1.000000
vn -1.000000 -0.000000 -0.000000
vn 0.000001 -0.000000 -1.000000
vn 1.000000 -0.000000 0.000000
vn 1.000000 0.000001 0.000000
vn 0.707107 0.000000 -0.707106
vn -0.707107 0.000000 0.707106
vn 1.000000 0.000000 0.000002
vn 0.707107 0.000000 -0.707107
vn -0.707107 0.000000 0.707107
vn 1.000000 0.000000 0.000001
vn -1.000000 -0.000000 -0.000001
vn 0.000000 -0.000000 -1.000000
vn -0.000000 0.000000 1.000000
vn -0.000000 0.000001 1.000000
vn 0.707106 0.000000 0.707107
vn -0.707106 0.000000 -0.707108
vn -0.000002 0.000000 1.000000
vn 0.707107 0.000000 0.707107
vn -0.707107 0.000000 -0.707107
vn -1.000000 0.000001 -0.000000
vn 0.707108 0.000000 -0.707106
vn -1.000000 0.000000 -0.000002
vn 0.000000 0.000001 -1.000000
vn -0.707106 0.000000 -0.707107
vn 0.000002 0.000000 -1.000000
usemtl (null)
s off
f 209//129 210//129 211//129 212//129
f 213//130 216//130 215//130 214//130
f 220//131 221//131 218//131 217//131
f 221//131 222//131 219//131 218//131
f 210//132 217//132 223//132 211//132
f 217//132 218//132 224//132 223//132
f 218//132 219//132 225//132 224//132
f 219//132 214//132 215//132 225//132
f 211//133 223//133 226//133 212//133
f 223//133 224//133 227//133 226//133
f 224//133 225//133 228//133 227//133
f 225//133 215//133 216//133 228//133
f 213//134 222//134 228//134 216//134
f 222//135 221//135 227//135 228//135
f 221//135 220//135 226//135 227//135
f 220//134 209//134 212//134 226//134
f 219//129 222//129 229//129 230//129
f 222//136 213//136 231//136 229//136
f 214//137 219//137 230//137 232//137
f 213//130 214//130 232//130 231//130
f 229//138 231//138 232//138 230//138
f 220//130 217//130 233//130 234//130
f 209//139 220//139 234//139 235//139
f 217//140 210//140 236//140 233//140
f 210//129 209//129 235//129 236//129
f 235//141 234//141 233//141 236//141
f 237//129 238//129 239//129 240//129
f 241//130 244//130 243//130 242//130
f 248//142 249//142 246//142 245//142
f 249//142 250//142 247//142 246//142
f 238//143 245//143 251//143 239//143
f 245//143 246//143 252//143 251//143
f 246//143 247//143 253//143 252//143
f 247//143 242//143 243//143 253//143
f 239//141 251//141 254//141 240//141
f 251//141 252//141 255//141 254//141
f 252//141 253//141 256//141 255//141
f 253//141 243//141 244//141 256//141
f 241//144 250//144 256//144 244//144
f 250//145 249//145 255//145 256//145
f 249//145 248//145 254//145 255//145
f 248//144 237//144 240//144 254//144
f 247//129 250//129 257//129 258//129
f 250//146 241//146 259//146 257//146
f 242//147 247//147 258//147 260//147
f 241//130 242//130 260//130 259//130
f 257//148 259//148 260//148 258//148
f 248//130 245//130 261//130 262//130
f 237//149 248//149 262//149 263//149
f 245//150 238//150 264//150 261//150
f 238//129 237//129 263//129 264//129
f 263//131 262//131 261//131 264//131
f 265//129 266//129 267//129 268//129
f 269//130 272//130 271//130 270//130
f 276//133 277//133 274//133 273//133
f 277//133 278//133 275//133 274//133
f 266//134 273//134 279//134 267//134
f 273//134 274//134 280//134 279//134
f 274//134 275//134 281//134 280//134
f 275//134 270//134 271//134 281//134
f 267//131 279//131 282//131 268//131
f 279//131 280//131 283//131 282//131
f 280//131 281//131 284//131 283//131
f 281//131 271//131 272//131 284//131
f 269//132 278//132 284//132 272//132
f 278//151 277//151 283//151 284//151
f 277//151 276//151 282//151 283//151
f 276//132 265//132 268//132 282//132
f 275//129 278//129 285//129 286//129
f 278//137 269//137 287//137 285//137
f 270//152 275//152 286//152 288//152
f 269//130 270//130 288//130 287//130
f 285//153 287//153 288//153 286//153
f 276//130 273//130 289//130 290//130
f 265//140 276//140 290//140 291//140
f 273//139 266//139 292//139 289//139
f 266//129 265//129 291//129 292//129
f 291//142 290//142 289//142 292//142
f 293//129 294//129 295//129 296//129
f 297//130 300//130 299//130 298//130
f 304//141 305//141 302//141 301//141
f 305//141 306//141 303//141 302//141
f 294//144 301//144 307//144 295//144
f 301//144 302//144 308//144 307//144
f 302//144 303//144 309//144 308//144
f 303//144 298//144 299//144 309//144
f 295//142 307//142 310//142 296//142
f 307//142 308//142 311//142 310//142
f 308//142 309//142 312//142 311//142
f 309//142 299//142 300//142 312//142
f 297//143 306//143 312//143 300//143
f 306//154 305//154 311//154 312//154
f 305//154 304//154 310//154 311//154
f 304//143 293//143 296//143 310//143
f 303//129 306//129 313//129 314//129
f 306//155 297//155 315//155 313//155
f 298//146 303//146 314//146 316//146
f 297//130 298//130 316//130 315//130
f 313//156 315//156 316//156 314//156
f 304//130 301//130 317//130 318//130
f 293//150 304//150 318//150 319//150
f 301//149 294//149 320//149 317//149
f 294//129 293//129 319//129 320//129
f 319//143 318//143 317//143 320//143
