# Blender v2.58 (sub 0) OBJ File: 'rocket.blend'
# www.blender.org
mtllib rocket.mtl
o fins
v 0.007209 -0.649512 0.048022
v 0.013012 -0.530403 0.278553
v 0.007157 -0.527136 0.278553
v -0.009911 -0.649512 0.048022
v 0.007209 -0.712017 0.048022
v -0.009859 -0.571397 0.278553
v -0.015714 -0.568130 0.278553
v -0.009911 -0.712017 0.048022
v 0.035958 -0.649512 -0.031424
v 0.232701 -0.530403 -0.151715
v 0.235629 -0.527136 -0.146645
v 0.044517 -0.649512 -0.016598
v 0.035958 -0.712017 -0.031424
v 0.244137 -0.571397 -0.131909
v 0.247064 -0.568130 -0.126838
v 0.044517 -0.712017 -0.016598
v 0.044517 -0.649512 0.016598
v 0.247064 -0.530403 0.126837
v 0.244137 -0.527136 0.131908
v 0.035958 -0.649512 0.031424
v 0.044517 -0.712017 0.016598
v 0.235629 -0.571397 0.146644
v 0.232702 -0.568130 0.151715
v 0.035958 -0.712017 0.031424
v -0.038659 -0.649512 0.031424
v -0.235403 -0.530403 0.151715
v -0.238330 -0.527136 0.146644
v -0.047219 -0.649512 0.016598
v -0.038659 -0.712017 0.031424
v -0.246839 -0.571397 0.131908
v -0.249766 -0.568130 0.126838
v -0.047219 -0.712017 0.016598
v -0.047219 -0.649512 -0.016598
v -0.249766 -0.530403 -0.126838
v -0.246839 -0.527136 -0.131908
v -0.038659 -0.649512 -0.031424
v -0.047219 -0.712017 -0.016598
v -0.238331 -0.571397 -0.146645
v -0.235403 -0.568130 -0.151715
v -0.038659 -0.712017 -0.031424
v -0.009911 -0.649512 -0.048022
v -0.015714 -0.530403 -0.278553
v -0.009859 -0.527136 -0.278553
v 0.007209 -0.649512 -0.048022
v -0.009911 -0.712017 -0.048022
v 0.007157 -0.571397 -0.278553
v 0.013012 -0.568130 -0.278553
v 0.007209 -0.712017 -0.048022
vn -0.124603 -0.876392 0.465200
vn 0.120495 0.847476 -0.516976
vn -0.966282 0.213527 -0.143894
vn 0.000002 -0.000001 -1.000000
vn 0.971525 -0.214686 0.100244
vn -0.000001 0.000000 1.000000
vn 0.465177 -0.876392 -0.124690
vn -0.507962 0.847476 0.154137
vn 0.358525 0.213527 0.908772
vn -0.866026 -0.000002 0.499999
vn -0.398949 -0.214686 -0.891487
vn 0.866026 0.000000 -0.500000
vn 0.340573 -0.876392 0.340509
vn -0.387467 0.847476 -0.362840
vn -0.607757 0.213527 0.764878
vn -0.866025 -0.000001 -0.500000
vn 0.572576 -0.214686 -0.791243
vn 0.866025 0.000000 0.500001
vn -0.465177 -0.876392 0.124690
vn 0.507962 0.847476 -0.154136
vn -0.358524 0.213527 -0.908772
vn 0.866026 -0.000002 -0.499998
vn 0.398948 -0.214686 0.891488
vn -0.866026 0.000000 0.499999
vn -0.340573 -0.876392 -0.340510
vn 0.387466 0.847476 0.362841
vn 0.607757 0.213527 -0.764877
vn 0.866024 -0.000003 0.500003
vn -0.572577 -0.214686 0.791243
vn -0.866025 -0.000000 -0.500001
vn 0.124603 -0.876392 -0.465200
vn -0.120495 0.847476 0.516976
vn 0.966282 0.213527 0.143895
vn -0.000002 -0.000001 1.000000
vn -0.971525 -0.214686 -0.100245
vn 0.000001 0.000000 -1.000000
usemtl (null)
s off
f 1//1 2//1 3//1 4//1
f 5//2 8//2 7//2 6//2
f 1//3 5//3 6//3 2//3
f 2//4 6//4 7//4 3//4
f 3//5 7//5 8//5 4//5
f 5//6 1//6 4//6 8//6
f 9//7 10//7 11//7 12//7
f 13//8 16//8 15//8 14//8
f 9//9 13//9 14//9 10//9
f 10//10 14//10 15//10 11//10
f 11//11 15//11 16//11 12//11
f 13//12 9//12 12//12 16//12
f 17//13 18//13 19//13 20//13
f 21//14 24//14 23//14 22//14
f 17//15 21//15 22//15 18//15
f 18//16 22//16 23//16 19//16
f 19//17 23//17 24//17 20//17
f 21//18 17//18 20//18 24//18
f 25//19 26//19 27//19 28//19
f 29//20 32//20 31//20 30//20
f 25//21 29//21 30//21 26//21
f 26//22 30//22 31//22 27//22
f 27//23 31//23 32//23 28//23
f 29//24 25//24 28//24 32//24
f 33//25 34//25 35//25 36//25
f 37//26 40//26 39//26 38//26
f 33//27 37//27 38//27 34//27
f 34//28 38//28 39//28 35//28
f 35//29 39//29 40//29 36//29
f 37//30 33//30 36//30 40//30
f 41//31 42//31 43//31 44//31
f 45//32 48//32 47//32 46//32
f 41//33 45//33 46//33 42//33
f 42//34 46//34 47//34 43//34
f 43//35 47//35 48//35 44//35
f 45//36 41//36 44//36 48//36
o tube
v 0.000000 -0.750000 -0.050000
v 0.019134 -0.750000 -0.046194
v 0.035355 -0.750000 -0.035355
v 0.046194 -0.750000 -0.019134
v 0.050000 -0.750000 0.000000
v 0.046194 -0.750000 0.019134
v 0.035355 -0.750000 0.035355
v 0.019134 -0.750000 0.046194
v 0.000000 -0.750000 0.050000
v -0.019134 -0.750000 0.046194
v -0.035355 -0.750000 0.035355
v -0.046194 -0.750000 0.019134
v -0.050000 -0.750000 -0.000000
v -0.046194 -0.750000 -0.019134
v -0.035355 -0.750000 -0.035355
v -0.019134 -0.750000 -0.046194
v -0.000000 0.750000 -0.000000
v 0.000000 -0.750000 0.000000
v 0.019134 0.528370 -0.046194
v 0.000000 0.528370 -0.050000
v 0.035355 0.528370 -0.035355
v 0.046194 0.528370 -0.019134
v 0.050000 0.528370 0.000000
v 0.046194 0.528370 0.019134
v 0.035355 0.528370 0.035355
v 0.019134 0.528370 0.046194
v -0.000000 0.528370 0.050000
v -0.019134 0.528370 0.046194
v -0.035355 0.528370 0.035355
v -0.046194 0.528370 0.019134
v -0.050000 0.528370 -0.000000
v -0.046194 0.528370 -0.019134
v -0.035355 0.528370 -0.035355
v -0.019134 0.528370 -0.046194
v 0.017561 0.603347 -0.042395
v 0.012451 0.678324 -0.030059
v 0.000000 0.603347 -0.045888
v 0.000000 0.678324 -0.032535
v 0.032448 0.603347 -0.032448
v 0.023006 0.678324 -0.023006
v 0.042395 0.603347 -0.017561
v 0.030059 0.678324 -0.012451
v 0.045888 0.603347 0.000000
v 0.032535 0.678324 0.000000
v 0.042395 0.603347 0.017561
v 0.030059 0.678324 0.012451
v 0.032448 0.603347 0.032448
v 0.023006 0.678324 0.023006
v 0.017561 0.603347 0.042395
v 0.012451 0.678324 0.030059
v -0.000000 0.603347 0.045888
v -0.000000 0.678324 0.032535
v -0.012451 0.678324 0.030059
v -0.017561 0.603347 0.042395
v -0.032448 0.603347 0.032448
v -0.023006 0.678324 0.023006
v -0.030059 0.678324 0.012451
v -0.042395 0.603347 0.017560
v -0.045888 0.603347 -0.000000
v -0.032535 0.678324 -0.000000
v -0.042395 0.603347 -0.017561
v -0.030059 0.678324 -0.012451
v -0.032448 0.603347 -0.032448
v -0.023006 0.678324 -0.023006
v -0.012451 0.678324 -0.030059
v -0.017560 0.603347 -0.042395
vn -0.000000 -1.000000 0.000000
vn 0.000000 -0.665700 -0.746178
vn 0.000000 0.027284 -0.999603
vn 0.382519 0.027284 -0.923521
vn 0.285531 -0.665700 -0.689383
vn 0.706839 0.027284 -0.706839
vn 0.527635 -0.665700 -0.527635
vn 0.923521 0.027284 -0.382519
vn 0.689383 -0.665700 -0.285531
vn 0.999603 0.027284 0.000000
vn 0.746178 -0.665700 0.000000
vn 0.923521 0.027284 0.382519
vn 0.689383 -0.665700 0.285531
vn 0.706839 0.027284 0.706839
vn 0.527635 -0.665700 0.527635
vn 0.382519 0.027284 0.923521
vn 0.285531 -0.665700 0.689383
vn 0.000000 0.027284 0.999603
vn 0.000000 -0.665700 0.746178
vn -0.382519 0.027284 0.923521
vn -0.285531 -0.665700 0.689383
vn -0.706839 0.027284 0.706839
vn -0.527635 -0.665700 0.527635
vn -0.923521 0.027284 0.382519
vn -0.689383 -0.665700 0.285531
vn -0.999603 0.027284 0.000000
vn -0.746178 -0.665700 0.000000
vn -0.923521 0.027284 -0.382519
vn -0.689383 -0.665700 -0.285531
vn -0.706839 0.027284 -0.706839
vn -0.527635 -0.665700 -0.527635
vn -0.382519 0.027284 -0.923521
vn -0.285531 -0.665700 -0.689383
vn 0.000000 0.114383 -0.993408
vn 0.380169 0.114383 -0.917783
vn 0.000000 0.292337 -0.956298
vn 0.365947 0.292337 -0.883511
vn 0.000000 1.000000 0.000000
vn 0.702445 0.114383 -0.702445
vn 0.676199 0.292337 -0.676199
vn 0.917814 0.114383 -0.380169
vn 0.883511 0.292337 -0.365947
vn 0.993408 0.114383 0.000000
vn 0.956298 0.292337 0.000000
vn 0.917783 0.114383 0.380169
vn 0.883511 0.292337 0.365947
vn 0.702445 0.114383 0.702445
vn 0.676199 0.292337 0.676199
vn 0.380169 0.114383 0.917814
vn 0.365947 0.292337 0.883511
vn 0.000000 0.114383 0.993408
vn 0.000000 0.292337 0.956298
vn -0.380169 0.114383 0.917783
vn -0.365947 0.292337 0.883511
vn -0.702445 0.114383 0.702445
vn -0.676199 0.292337 0.676199
vn -0.917814 0.114383 0.380139
vn -0.883511 0.292337 0.365947
vn -0.993408 0.114383 0.000000
vn -0.956298 0.292337 0.000000
vn -0.917783 0.114383 -0.380169
vn -0.883511 0.292337 -0.365947
vn -0.702445 0.114383 -0.702445
vn -0.676199 0.292337 -0.676199
vn -0.380139 0.114383 -0.917814
vn -0.365947 0.292337 -0.883511
usemtl (null)
s off
f 66//37 49//37 50//37
f 66//37 50//37 51//37
f 66//37 51//37 52//37
f 66//37 52//37 53//37
f 66//37 53//37 54//37
f 66//37 54//37 55//37
f 66//37 55//37 56//37
f 66//37 56//37 57//37
f 66//37 57//37 58//37
f 66//37 58//37 59//37
f 66//37 59//37 60//37
f 66//37 60//37 61//37
f 66//37 61//37 62//37
f 66//37 62//37 63//37
f 66//37 63//37 64//37
f 64//37 49//37 66//37
s 1
f 49//38 68//39 67//40 50//41
f 50//41 67//40 69//42 51//43
f 51//43 69//42 70//44 52//45
f 52//45 70//44 71//46 53//47
f 53//47 71//46 72//48 54//49
f 54//49 72//48 73//50 55//51
f 55//51 73//50 74//52 56//53
f 56//53 74//52 75//54 57//55
f 57//55 75//54 76//56 58//57
f 58//57 76//56 77//58 59//59
f 59//59 77//58 78//60 60//61
f 60//61 78//60 79//62 61//63
f 61//63 79//62 80//64 62//65
f 62//65 80//64 81//66 63//67
f 63//67 81//66 82//68 64//69
f 68//39 49//38 64//69 82//68
f 68//39 85//70 83//71 67//40
f 85//70 86//72 84//73 83//71
f 86//72 65//74 84//73
f 67//40 83//71 87//75 69//42
f 83//71 84//73 88//76 87//75
f 84//73 65//74 88//76
f 69//42 87//75 89//77 70//44
f 87//75 88//76 90//78 89//77
f 88//76 65//74 90//78
f 70//44 89//77 91//79 71//46
f 89//77 90//78 92//80 91//79
f 90//78 65//74 92//80
f 71//46 91//79 93//81 72//48
f 91//79 92//80 94//82 93//81
f 92//80 65//74 94//82
f 72//48 93//81 95//83 73//50
f 93//81 94//82 96//84 95//83
f 94//82 65//74 96//84
f 73//50 95//83 97//85 74//52
f 95//83 96//84 98//86 97//85
f 96//84 65//74 98//86
f 74//52 97//85 99//87 75//54
f 97//85 98//86 100//88 99//87
f 98//86 65//74 100//88
f 75//54 99//87 102//89 76//56
f 99//87 100//88 101//90 102//89
f 100//88 65//74 101//90
f 76//56 102//89 103//91 77//58
f 102//89 101//90 104//92 103//91
f 101//90 65//74 104//92
f 77//58 103//91 106//93 78//60
f 103//91 104//92 105//94 106//93
f 104//92 65//74 105//94
f 78//60 106//93 107//95 79//62
f 106//93 105//94 108//96 107//95
f 105//94 65//74 108//96
f 79//62 107//95 109//97 80//64
f 107//95 108//96 110//98 109//97
f 108//96 65//74 110//98
f 80//64 109//97 111//99 81//66
f 109//97 110//98 112//100 111//99
f 110//98 65//74 112//100
f 81//66 111//99 114//101 82//68
f 111//99 112//100 113//102 114//101
f 112//100 65//74 113//102
f 65//74 86//72 113//102
f 86//72 85//70 114//101 113//102
f 85//70 68//39 82//68 114//101
