# Blender v2.58 (sub 0) OBJ File: 'wing.blend'
# www.blender.org
mtllib wing.mtl
o Cube
v 1.500000 1.200000 -0.250000
v 1.500000 -1.200000 -0.250000
v -1.500000 -1.135785 -0.117816
v -1.499999 0.128218 -0.117816
v 1.500001 1.199999 0.250000
v 1.499999 -1.200001 0.250000
v -1.500000 -1.135785 0.117816
v -1.500000 0.128218 0.117816
v 1.285714 -1.207143 -0.118882
v 1.071429 -1.214286 -0.077135
v 0.857143 -1.221428 -0.039794
v 0.642857 -1.228571 -0.039794
v 0.428571 -1.235714 -0.039794
v 0.214286 -1.242857 -0.039794
v -0.000000 -1.250000 -0.039794
v -0.214286 -1.257143 -0.039794
v -0.428572 -1.264286 -0.039794
v -0.642857 -1.271428 -0.039794
v -0.857143 -1.246694 -0.039794
v -1.071429 -1.210542 -0.056045
v -1.285714 -1.170705 -0.086377
v 1.285714 1.135714 -0.118882
v 1.071429 1.071429 -0.077135
v 0.857143 1.007143 -0.039794
v 0.642857 0.942857 -0.039794
v 0.428572 0.878571 -0.039794
v 0.214286 0.814286 -0.039794
v 0.000000 0.750000 -0.039794
v -0.214285 0.685714 -0.039794
v -0.428571 0.621429 -0.039794
v -0.642857 0.557143 -0.039794
v -0.857142 0.460231 -0.039794
v -1.071428 0.351108 -0.056045
v -1.285714 0.237495 -0.086377
v 1.285713 -1.207144 0.118882
v 1.071428 -1.214286 0.077135
v 0.857142 -1.221429 0.039794
v 0.642856 -1.228572 0.039794
v 0.428571 -1.235715 0.039794
v 0.214285 -1.242857 0.039794
v -0.000001 -1.250000 0.039794
v -0.214286 -1.257143 0.039794
v -0.428572 -1.264286 0.039794
v -0.642858 -1.271428 0.039794
v -0.857143 -1.246694 0.039794
v -1.071429 -1.210542 0.056045
v -1.285715 -1.170705 0.086377
v 1.285715 1.135714 0.118882
v 1.071429 1.071428 0.077135
v 0.857143 1.007142 0.039794
v 0.642858 0.942857 0.039794
v 0.428572 0.878571 0.039794
v 0.214286 0.814285 0.039794
v 0.000000 0.750000 0.039794
v -0.214285 0.685714 0.039794
v -0.428571 0.621428 0.039794
v -0.642857 0.557143 0.039794
v -0.857142 0.460230 0.039794
v -1.071428 0.351107 0.056045
v -1.285714 0.237494 0.086377
v 1.500000 -1.336930 -0.062093
v 1.499999 -1.336930 0.062093
v 1.500000 1.408998 -0.062093
v 1.500000 1.408998 0.062093
v -1.500000 -1.255346 -0.029262
v -1.500000 -1.255346 0.029262
v -1.500000 0.190846 -0.029262
v -1.500000 0.190846 0.029262
v 1.285714 -1.345102 -0.029527
v 1.285714 -1.345103 0.029527
v 1.071428 -1.353275 -0.019158
v 1.071428 -1.353275 0.019158
v 0.857143 -1.361447 -0.009884
v 0.857142 -1.361447 0.009884
v 0.642857 -1.369620 -0.009884
v 0.642857 -1.369620 0.009884
v 0.428571 -1.377792 -0.009884
v 0.428571 -1.377792 0.009884
v 0.214285 -1.385964 -0.009884
v 0.214285 -1.385964 0.009884
v -0.000000 -1.394137 -0.009884
v -0.000001 -1.394137 0.009884
v -0.214286 -1.402309 -0.009884
v -0.214286 -1.402309 0.009884
v -0.428572 -1.410481 -0.009884
v -0.428572 -1.410481 0.009884
v -0.642857 -1.418653 -0.009884
v -0.642858 -1.418653 0.009884
v -0.857143 -1.389550 -0.009884
v -0.857143 -1.389550 0.009884
v -1.071429 -1.346534 -0.013920
v -1.071429 -1.346534 0.013920
v -1.285715 -1.298438 -0.021454
v -1.285715 -1.298438 0.021454
v 1.285715 1.335446 -0.029527
v 1.285715 1.335446 0.029527
v 1.071429 1.261895 -0.019158
v 1.071429 1.261894 0.019158
v 0.857143 1.188343 -0.009884
v 0.857143 1.188343 0.009884
v 0.642857 1.114791 -0.009884
v 0.642858 1.114791 0.009884
v 0.428572 1.041240 -0.009884
v 0.428572 1.041240 0.009884
v 0.214286 0.967688 -0.009884
v 0.214286 0.967688 0.009884
v 0.000000 0.894137 -0.009884
v 0.000000 0.894137 0.009884
v -0.214285 0.820585 -0.009884
v -0.214285 0.820585 0.009884
v -0.428571 0.747033 -0.009884
v -0.428571 0.747033 0.009884
v -0.642857 0.673482 -0.009884
v -0.642857 0.673482 0.009884
v -0.857142 0.563405 -0.009884
v -0.857142 0.563405 0.009884
v -1.071428 0.440206 -0.013920
v -1.071428 0.440206 0.013920
v -1.285714 0.312735 -0.021454
v -1.285714 0.312734 0.021454
vn 1.000000 -0.000000 0.000000
vn 1.000000 -0.000001 0.000000
vn -1.000000 0.000001 -0.000001
vn -1.000000 0.000001 -0.000002
vn -0.368786 0.224372 -0.902005
vn 0.429884 0.280831 -0.858089
vn 0.437574 -0.306162 -0.845424
vn -0.279733 -0.327097 -0.902615
vn -0.139409 -0.199194 -0.969970
vn -0.191839 0.140294 -0.971343
vn -0.064730 -0.129734 -0.989410
vn -0.104007 0.097018 -0.989807
vn 0.003723 -0.104282 -0.994537
vn -0.027772 0.086367 -0.995849
vn 0.003693 -0.103549 -0.994598
vn -0.029328 0.091189 -0.995392
vn 0.003662 -0.102817 -0.994690
vn -0.031037 0.096561 -0.994812
vn 0.003632 -0.102115 -0.994751
vn -0.032991 0.102603 -0.994171
vn 0.003601 -0.101413 -0.994812
vn -0.035188 0.109439 -0.993347
vn 0.003571 -0.100711 -0.994903
vn -0.037690 0.117252 -0.992370
vn -0.004975 -0.105655 -0.994385
vn -0.056093 0.132725 -0.989532
vn 0.010956 -0.117100 -0.993042
vn -0.057802 0.163457 -0.984832
vn 0.053835 -0.164342 -0.984924
vn -0.053560 0.246406 -0.967650
vn 0.069826 -0.237526 -0.968841
vn -0.079623 0.353099 -0.932157
vn -0.610828 -0.191717 -0.768181
vn -0.617512 0.228614 -0.752556
vn 0.429884 0.280831 0.858089
vn -0.368786 0.224372 0.902005
vn -0.279733 -0.327097 0.902615
vn 0.437574 -0.306162 0.845424
vn -0.191839 0.140294 0.971343
vn -0.139409 -0.199194 0.969970
vn -0.104007 0.097018 0.989807
vn -0.064730 -0.129734 0.989410
vn -0.027772 0.086367 0.995849
vn 0.003723 -0.104282 0.994537
vn -0.029328 0.091189 0.995392
vn 0.003693 -0.103549 0.994598
vn -0.031037 0.096561 0.994812
vn 0.003662 -0.102817 0.994690
vn -0.032991 0.102603 0.994171
vn 0.003632 -0.102115 0.994751
vn -0.035188 0.109439 0.993347
vn 0.003601 -0.101413 0.994812
vn -0.037690 0.117252 0.992370
vn 0.003571 -0.100711 0.994903
vn -0.056093 0.132725 0.989563
vn -0.004975 -0.105655 0.994385
vn -0.057802 0.163457 0.984832
vn 0.010956 -0.117100 0.993042
vn -0.053560 0.246406 0.967650
vn 0.053835 -0.164342 0.984924
vn -0.079623 0.353099 0.932157
vn 0.069826 -0.237526 0.968841
vn -0.617512 0.228614 0.752556
vn -0.610828 -0.191717 0.768181
vn -0.065981 -0.897794 0.435377
vn 0.603442 -0.726920 0.327677
vn -0.065981 -0.897794 -0.435408
vn 0.603442 -0.726920 -0.327677
vn -0.032075 -0.833216 0.551988
vn -0.032075 -0.833216 -0.551988
vn -0.001556 -0.796045 0.605182
vn -0.001556 -0.796045 -0.605182
vn 0.029267 -0.776452 0.629444
vn 0.029267 -0.776452 -0.629444
vn 0.029267 -0.775994 0.630024
vn 0.029267 -0.775994 -0.630024
vn 0.029237 -0.775536 0.630573
vn 0.029237 -0.775536 -0.630573
vn 0.029237 -0.775109 0.631123
vn 0.029237 -0.775079 -0.631153
vn 0.029206 -0.774651 0.631672
vn 0.029206 -0.774651 -0.631672
vn 0.029206 -0.774194 0.632221
vn 0.029206 -0.774194 -0.632221
vn -0.037416 -0.787225 0.615497
vn -0.037416 -0.787225 -0.615497
vn -0.116489 -0.779992 0.614795
vn -0.116489 -0.779992 -0.614795
vn -0.129002 -0.799707 0.586322
vn -0.129002 -0.799707 -0.586322
vn -0.125675 -0.838893 0.529557
vn -0.125675 -0.838893 -0.529557
vn -0.666005 -0.636036 0.389691
vn -0.666005 -0.636036 -0.389691
vn 0.460524 0.790307 -0.404065
vn -0.388226 0.800653 -0.456252
vn -0.388226 0.800653 0.456252
vn 0.460524 0.790307 0.404065
vn -0.322214 0.758141 -0.566881
vn -0.322214 0.758141 0.566881
vn -0.289438 0.735588 -0.612445
vn -0.289438 0.735588 0.612445
vn -0.247078 0.726890 -0.640736
vn -0.247078 0.726890 0.640736
vn -0.248024 0.729942 -0.636891
vn -0.248024 0.729942 0.636891
vn -0.249031 0.733329 -0.632588
vn -0.249031 0.733299 0.632588
vn -0.250191 0.737083 -0.627735
vn -0.250191 0.737083 0.627766
vn -0.251473 0.741295 -0.622242
vn -0.251473 0.741295 0.622242
vn -0.252907 0.746055 -0.615925
vn -0.252907 0.746055 0.615925
vn -0.310099 0.742943 -0.593158
vn -0.310099 0.742943 0.593158
vn -0.378124 0.723899 -0.577013
vn -0.378124 0.723899 0.577013
vn -0.400952 0.753136 -0.521500
vn -0.400952 0.753136 0.521531
vn -0.422254 0.806269 -0.414197
vn -0.422254 0.806269 0.414197
vn -0.799860 0.547746 -0.245216
vn -0.799860 0.547746 0.245216
usemtl (null)
s off
f 1//1 63//1 61//1 2//1
f 63//1 64//1 62//1 61//1
f 64//2 5//2 6//2 62//2
f 3//3 65//3 67//3 4//3
f 65//3 66//3 68//3 67//3
f 66//4 7//4 8//4 68//4
s 1
f 22//5 1//6 2//7 9//8
f 9//8 10//9 23//10 22//5
f 10//9 11//11 24//12 23//10
f 11//11 12//13 25//14 24//12
f 12//13 13//15 26//16 25//14
f 13//15 14//17 27//18 26//16
f 14//17 15//19 28//20 27//18
f 15//19 16//21 29//22 28//20
f 16//21 17//23 30//24 29//22
f 17//23 18//25 31//26 30//24
f 18//25 19//27 32//28 31//26
f 19//27 20//29 33//30 32//28
f 20//29 21//31 34//32 33//30
f 21//31 3//33 4//34 34//32
f 5//35 48//36 35//37 6//38
f 48//36 49//39 36//40 35//37
f 49//39 50//41 37//42 36//40
f 50//41 51//43 38//44 37//42
f 51//43 52//45 39//46 38//44
f 52//45 53//47 40//48 39//46
f 53//47 54//49 41//50 40//48
f 54//49 55//51 42//52 41//50
f 55//51 56//53 43//54 42//52
f 56//53 57//55 44//56 43//54
f 57//55 58//57 45//58 44//56
f 58//57 59//59 46//60 45//58
f 59//59 60//61 47//62 46//60
f 60//61 8//63 7//64 47//62
f 35//37 70//65 62//66 6//38
f 70//65 69//67 61//68 62//66
f 69//67 9//8 2//7 61//68
f 36//40 72//69 70//65 35//37
f 72//69 71//70 69//67 70//65
f 71//70 10//9 9//8 69//67
f 37//42 74//71 72//69 36//40
f 74//71 73//72 71//70 72//69
f 73//72 11//11 10//9 71//70
f 38//44 76//73 74//71 37//42
f 76//73 75//74 73//72 74//71
f 75//74 12//13 11//11 73//72
f 39//46 78//75 76//73 38//44
f 78//75 77//76 75//74 76//73
f 77//76 13//15 12//13 75//74
f 40//48 80//77 78//75 39//46
f 80//77 79//78 77//76 78//75
f 79//78 14//17 13//15 77//76
f 41//50 82//79 80//77 40//48
f 82//79 81//80 79//78 80//77
f 81//80 15//19 14//17 79//78
f 42//52 84//81 82//79 41//50
f 84//81 83//82 81//80 82//79
f 83//82 16//21 15//19 81//80
f 43//54 86//83 84//81 42//52
f 86//83 85//84 83//82 84//81
f 85//84 17//23 16//21 83//82
f 44//56 88//85 86//83 43//54
f 88//85 87//86 85//84 86//83
f 87//86 18//25 17//23 85//84
f 45//58 90//87 88//85 44//56
f 90//87 89//88 87//86 88//85
f 89//88 19//27 18//25 87//86
f 46//60 92//89 90//87 45//58
f 92//89 91//90 89//88 90//87
f 91//90 20//29 19//27 89//88
f 47//62 94//91 92//89 46//60
f 94//91 93//92 91//90 92//89
f 93//92 21//31 20//29 91//90
f 7//64 66//93 94//91 47//62
f 66//93 65//94 93//92 94//91
f 65//94 3//33 21//31 93//92
f 63//95 1//6 22//5 95//96
f 95//96 96//97 64//98 63//95
f 96//97 48//36 5//35 64//98
f 23//10 97//99 95//96 22//5
f 97//99 98//100 96//97 95//96
f 98//100 49//39 48//36 96//97
f 24//12 99//101 97//99 23//10
f 99//101 100//102 98//100 97//99
f 100//102 50//41 49//39 98//100
f 25//14 101//103 99//101 24//12
f 101//103 102//104 100//102 99//101
f 102//104 51//43 50//41 100//102
f 26//16 103//105 101//103 25//14
f 103//105 104//106 102//104 101//103
f 104//106 52//45 51//43 102//104
f 27//18 105//107 103//105 26//16
f 105//107 106//108 104//106 103//105
f 106//108 53//47 52//45 104//106
f 28//20 107//109 105//107 27//18
f 107//109 108//110 106//108 105//107
f 108//110 54//49 53//47 106//108
f 29//22 109//111 107//109 28//20
f 109//111 110//112 108//110 107//109
f 110//112 55//51 54//49 108//110
f 30//24 111//113 109//111 29//22
f 111//113 112//114 110//112 109//111
f 112//114 56//53 55//51 110//112
f 31//26 113//115 111//113 30//24
f 113//115 114//116 112//114 111//113
f 114//116 57//55 56//53 112//114
f 32//28 115//117 113//115 31//26
f 115//117 116//118 114//116 113//115
f 116//118 58//57 57//55 114//116
f 33//30 117//119 115//117 32//28
f 117//119 118//120 116//118 115//117
f 118//120 59//59 58//57 116//118
f 34//32 119//121 117//119 33//30
f 119//121 120//122 118//120 117//119
f 120//122 60//61 59//59 118//120
f 4//34 67//123 119//121 34//32
f 67//123 68//124 120//122 119//121
f 68//124 8//63 60//61 120//122
