<?xml version="1.0" encoding="UTF-8" standalone="no"?>
<!-- Created with Inkscape (http://www.inkscape.org/) -->

<svg
   xmlns:dc="http://purl.org/dc/elements/1.1/"
   xmlns:cc="http://creativecommons.org/ns#"
   xmlns:rdf="http://www.w3.org/1999/02/22-rdf-syntax-ns#"
   xmlns:svg="http://www.w3.org/2000/svg"
   xmlns="http://www.w3.org/2000/svg"
   xmlns:sodipodi="http://sodipodi.sourceforge.net/DTD/sodipodi-0.dtd"
   xmlns:inkscape="http://www.inkscape.org/namespaces/inkscape"
   width="512"
   height="512"
   id="svg4956"
   version="1.1"
   inkscape:version="0.48.3.1 r9886"
   inkscape:export-filename="/home/fred/projets/irr310/res/drawable/icons/trade.png"
   inkscape:export-xdpi="209.45"
   inkscape:export-ydpi="209.45"
   sodipodi:docname="Nouveau document 4">
  <defs
     id="defs4958" />
  <sodipodi:namedview
     id="base"
     pagecolor="#cfcfcf"
     bordercolor="#666666"
     borderopacity="1.0"
     inkscape:pageopacity="1"
     inkscape:pageshadow="2"
     inkscape:zoom="5.6"
     inkscape:cx="40.013059"
     inkscape:cy="53.924405"
     inkscape:document-units="px"
     inkscape:current-layer="layer1"
     showgrid="true"
     fit-margin-top="0"
     fit-margin-left="0"
     fit-margin-right="0"
     fit-margin-bottom="0"
     inkscape:window-width="1855"
     inkscape:window-height="1176"
     inkscape:window-x="65"
     inkscape:window-y="24"
     inkscape:window-maximized="1"
     inkscape:snap-global="false">
    <inkscape:grid
       type="xygrid"
       id="grid5778"
       empspacing="5"
       visible="true"
       enabled="true"
       snapvisiblegridlinesonly="true"
       spacingx="32px"
       spacingy="32px" />
  </sodipodi:namedview>
  <metadata
     id="metadata4961">
    <rdf:RDF>
      <cc:Work
         rdf:about="">
        <dc:format>image/svg+xml</dc:format>
        <dc:type
           rdf:resource="http://purl.org/dc/dcmitype/StillImage" />
        <dc:title></dc:title>
      </cc:Work>
    </rdf:RDF>
  </metadata>
  <g
     inkscape:label="Calque 1"
     inkscape:groupmode="layer"
     id="layer1"
     transform="translate(48.03905,112.86553)">
    <g
       id="g13662"
       transform="matrix(1.1425015,0,0,1.1425015,-2513.5876,-339.98744)"
       style="fill:none;stroke:#ffffff;stroke-opacity:1">
      <path
         sodipodi:nodetypes="cscc"
         inkscape:connector-curvature="0"
         id="path13649"
         d="m 2161.5477,631.97023 c 0,-5.45726 4.8699,-9.88122 10.8774,-9.88122 4.5728,0 8.6573,2.59811 10.2214,6.50164 l -8.7398,-1.99089"
         style="fill:none;stroke:#ffffff;stroke-width:3.90117097;stroke-miterlimit:4;stroke-opacity:1" />
      <path
         style="fill:none;stroke:#ffffff;stroke-width:3.90117049;stroke-miterlimit:4;stroke-opacity:1"
         d="m 2182.6465,633.30661 c 0,5.45726 -4.8699,9.88123 -10.8774,9.88123 -4.5729,0 -8.6573,-2.59812 -10.2214,-6.50165 l 8.7399,1.99089"
         id="path13656"
         inkscape:connector-curvature="0"
         sodipodi:nodetypes="cscc" />
    </g>
    <g
       id="g5807"
       transform="matrix(1.1159735,0,0,1.1159735,4.4708365,-39.78564)"
       style="fill:#ffffff;fill-opacity:1">
      <rect
         style="fill:#ffffff;fill-opacity:1;stroke:none"
         id="rect4916"
         width="12.369457"
         height="12.369457"
         x="-47.019165"
         y="335.95801" />
      <rect
         y="335.95801"
         x="-30.714108"
         height="12.369457"
         width="12.369457"
         id="rect4918"
         style="fill:#ffffff;fill-opacity:1;stroke:none" />
      <rect
         style="fill:#ffffff;fill-opacity:1;stroke:none"
         id="rect4920"
         width="12.369457"
         height="12.369457"
         x="-30.714108"
         y="352.26294" />
      <rect
         y="352.26294"
         x="-47.019165"
         height="12.369457"
         width="12.369457"
         id="rect4922"
         style="fill:#ffffff;fill-opacity:1;stroke:none" />
    </g>
    <path
       d="m 2580,3289.1667 a 72.5,72.5 0 1 1 -145,0 72.5,72.5 0 1 1 145,0 z"
       sodipodi:ry="72.5"
       sodipodi:rx="72.5"
       sodipodi:cy="3289.1667"
       sodipodi:cx="2507.5"
       id="path8919"
       style="fill:none;stroke:#ffffff;stroke-width:14.67920398999999954;stroke-miterlimit:4;stroke-opacity:1;stroke-dasharray:none"
       sodipodi:type="arc"
       transform="matrix(0.2005025,0,0,0.19831744,-502.79735,-301.16578)" />
    <path
       sodipodi:nodetypes="cccc"
       inkscape:connector-curvature="0"
       id="path8923"
       d="m 6.5688416,365.48739 7.0390894,-7.72727 2.35474,9.21481 z"
       style="fill:#ffffff;fill-opacity:1;stroke:none" />
    <path
       style="fill:#ffffff;fill-opacity:1;stroke:none"
       d="m -13.682545,344.50652 7.0390897,-7.72727 -9.3938727,-1.48749 z"
       id="path8925"
       inkscape:connector-curvature="0"
       sodipodi:nodetypes="cccc" />
    <path
       style="fill:#ffffff;fill-opacity:1;stroke:none"
       d="m 14.112966,344.62103 -7.4492726,-7.33265 9.2989776,-1.99662 z"
       id="path8929"
       inkscape:connector-curvature="0"
       sodipodi:nodetypes="cccc" />
    <path
       sodipodi:nodetypes="cccc"
       inkscape:connector-curvature="0"
       id="path8931"
       d="m -6.7383981,364.97825 -7.4492729,-7.33265 -1.849657,9.32933 z"
       style="fill:#ffffff;fill-opacity:1;stroke:none" />
    <g
       id="g13636"
       style="fill:#ffffff;fill-opacity:1"
       transform="matrix(1.496355,0,0,1.5012127,-4703.2455,124.72991)">
      <path
         sodipodi:nodetypes="cccc"
         style="fill:#ffffff;fill-opacity:1;stroke:none"
         d="m 3153.9327,161.36781 21.3853,0.069 -0.1384,-21.3161 z"
         id="path13630"
         inkscape:connector-curvature="0" />
      <path
         sodipodi:nodetypes="cccc"
         style="fill:#ffffff;fill-opacity:1;stroke:none"
         d="m 3153.9327,140.12091 0,15.2258 15.1565,-15.2258 z"
         id="path13632"
         inkscape:connector-curvature="0" />
      <path
         inkscape:connector-curvature="0"
         id="path13634"
         d="m 3153.9327,140.12091 0,15.2258 15.1565,-15.2258 z"
         style="fill:#ffffff;fill-opacity:1;stroke:none"
         sodipodi:nodetypes="cccc" />
    </g>
    <g
       id="g8626"
       transform="matrix(1.4401619,0,0,1.4402282,-3032.8762,-5384.517)"
       style="fill:#ffffff;fill-opacity:1">
      <path
         inkscape:connector-curvature="0"
         id="path8585"
         d="m 2139.2812,3981.125 0,2.8438 22.0938,0 0,-2.8438 -22.0938,0 z"
         style="font-size:medium;font-style:normal;font-variant:normal;font-weight:normal;font-stretch:normal;text-indent:0;text-align:start;text-decoration:none;line-height:normal;letter-spacing:normal;word-spacing:normal;text-transform:none;direction:ltr;block-progression:tb;writing-mode:lr-tb;text-anchor:start;baseline-shift:baseline;color:#000000;fill:#ffffff;fill-opacity:1;stroke:none;stroke-width:2.84810781000000013;marker:none;visibility:visible;display:inline;overflow:visible;enable-background:accumulate;font-family:Sans;-inkscape-font-specification:Sans" />
      <path
         inkscape:connector-curvature="0"
         id="path8587"
         d="m 2148.9062,3971.4375 0,22.2187 2.8438,0 0,-22.2187 -2.8438,0 z"
         style="font-size:medium;font-style:normal;font-variant:normal;font-weight:normal;font-stretch:normal;text-indent:0;text-align:start;text-decoration:none;line-height:normal;letter-spacing:normal;word-spacing:normal;text-transform:none;direction:ltr;block-progression:tb;writing-mode:lr-tb;text-anchor:start;baseline-shift:baseline;color:#000000;fill:#ffffff;fill-opacity:1;stroke:none;stroke-width:2.84810781000000013;marker:none;visibility:visible;display:inline;overflow:visible;enable-background:accumulate;font-family:Sans;-inkscape-font-specification:Sans" />
      <path
         inkscape:connector-curvature="0"
         id="path8589"
         d="m 2143.5312,3973.6875 -2.0312,2 15.625,15.7187 2.0312,-2 -15.625,-15.7187 z"
         style="font-size:medium;font-style:normal;font-variant:normal;font-weight:normal;font-stretch:normal;text-indent:0;text-align:start;text-decoration:none;line-height:normal;letter-spacing:normal;word-spacing:normal;text-transform:none;direction:ltr;block-progression:tb;writing-mode:lr-tb;text-anchor:start;baseline-shift:baseline;color:#000000;fill:#ffffff;fill-opacity:1;stroke:none;stroke-width:2.84810781000000013;marker:none;visibility:visible;display:inline;overflow:visible;enable-background:accumulate;font-family:Sans;-inkscape-font-specification:Sans" />
      <path
         inkscape:connector-curvature="0"
         id="path8591"
         d="m 2157.125,3973.6875 -15.625,15.7187 2.0312,2 15.625,-15.7187 -2.0312,-2 z"
         style="font-size:medium;font-style:normal;font-variant:normal;font-weight:normal;font-stretch:normal;text-indent:0;text-align:start;text-decoration:none;line-height:normal;letter-spacing:normal;word-spacing:normal;text-transform:none;direction:ltr;block-progression:tb;writing-mode:lr-tb;text-anchor:start;baseline-shift:baseline;color:#000000;fill:#ffffff;fill-opacity:1;stroke:none;stroke-width:2.84810781000000013;marker:none;visibility:visible;display:inline;overflow:visible;enable-background:accumulate;font-family:Sans;-inkscape-font-specification:Sans" />
      <path
         id="path8593"
         d="m 2163.0395,3940.9697 c 0,6.2484 -5.0653,11.3137 -11.3137,11.3137 -6.2484,0 -11.3137,-5.0653 -11.3137,-11.3137 0,-6.2484 5.0653,-11.3137 11.3137,-11.3137 6.2484,0 11.3137,5.0653 11.3137,11.3137 z"
         style="fill:#ffffff;fill-opacity:1;stroke:none"
         transform="matrix(0.35503405,0,0,0.3569956,1379.2361,2568.702)"
         inkscape:connector-curvature="0" />
    </g>
    <g
       id="g8576"
       transform="matrix(1.1617416,0,0,-1.1640799,-2285.5772,5262.0679)"
       style="fill:#ffffff;fill-opacity:1">
      <path
         id="path8550"
         transform="translate(-4.9154396,2.3406696)"
         d="m 1958.5938,4188.8438 c 0,3.2316 1.1102,6.337 3.1874,8.8124 l 6.4376,-5.375 c -0.7953,-0.9331 -1.2977,-2.1188 -1.3126,-3.4374 l -8.3124,0 z m 19.1562,0 c -0.015,1.3186 -0.5173,2.5043 -1.3125,3.4374 l 6.4063,5.375 c 2.0771,-2.4755 3.2187,-5.5809 3.2187,-8.8124 l -8.3125,0 z m -7.2812,5.0312 -2.8438,7.875 c 3.0402,1.0957 6.373,1.0835 9.4062,-0.031 l -2.875,-7.8438 c -0.5744,0.2068 -1.1668,0.3438 -1.8124,0.3438 -0.656,0 -1.293,-0.1307 -1.875,-0.3438 z"
         style="fill:#ffffff;fill-opacity:1;stroke:none"
         inkscape:connector-curvature="0" />
      <path
         transform="matrix(0.72727274,0,0,0.72727274,532.31193,1145.3441)"
         d="m 1978.6928,4187.9502 c 0,2.9985 -2.4307,5.4293 -5.4293,5.4293 -2.9985,0 -5.4292,-2.4308 -5.4292,-5.4293 0,-2.9985 2.4307,-5.4293 5.4292,-5.4293 2.9986,0 5.4293,2.4308 5.4293,5.4293 z"
         sodipodi:ry="5.4292941"
         sodipodi:rx="5.4292941"
         sodipodi:cy="4187.9502"
         sodipodi:cx="1973.2635"
         id="path8561"
         style="fill:#ffffff;fill-opacity:1;stroke:none"
         sodipodi:type="arc" />
      <rect
         y="4177.4146"
         x="1953.6115"
         height="8.7250004"
         width="27.544851"
         id="rect8574"
         style="fill:#ffffff;fill-opacity:1;stroke:none" />
    </g>
    <path
       style="fill:#ffffff;fill-opacity:1;stroke:none"
       d="m 16.55326,398.95589 31.246976,0 0,-23.77459 -7.833472,-8.22541 0,8.22541 -8.00576,-8.22541 0,8.22541 -8.063232,-8.22541 0,8.22541 -8.097536,-8.22541 z"
       id="path13643"
       inkscape:connector-curvature="0"
       sodipodi:nodetypes="ccccccccccc" />
    <path
       style="fill:#ffffff;fill-opacity:1;stroke:none"
       d="m 47.764522,399.04518 32.000004,0 -11.755777,-14.9833 0,-13.26797 3.137792,0 0,-3.74873 -15.191682,0 0,3.74873 3.238145,0 0,13.26797 z"
       id="path8943"
       inkscape:connector-curvature="0"
       sodipodi:nodetypes="ccccccccccc" />
  </g>
</svg>
