<?xml version="1.0" encoding="UTF-8" standalone="no"?>
<!-- Created with Inkscape (http://www.inkscape.org/) -->

<svg
   xmlns:dc="http://purl.org/dc/elements/1.1/"
   xmlns:cc="http://creativecommons.org/ns#"
   xmlns:rdf="http://www.w3.org/1999/02/22-rdf-syntax-ns#"
   xmlns:svg="http://www.w3.org/2000/svg"
   xmlns="http://www.w3.org/2000/svg"
   xmlns:sodipodi="http://sodipodi.sourceforge.net/DTD/sodipodi-0.dtd"
   xmlns:inkscape="http://www.inkscape.org/namespaces/inkscape"
   width="50"
   height="50"
   id="svg7704"
   version="1.1"
   inkscape:version="0.48.2 r9819"
   sodipodi:docname="rocketpod_item_icon.svg"
   inkscape:export-filename="/home/fred/projets/irr310/graphics/icons/gun_item_icon_64.png"
   inkscape:export-xdpi="115.2"
   inkscape:export-ydpi="115.2">
  <defs
     id="defs7706" />
  <sodipodi:namedview
     id="base"
     pagecolor="#ffffff"
     bordercolor="#666666"
     borderopacity="1.0"
     inkscape:pageopacity="0.0"
     inkscape:pageshadow="2"
     inkscape:zoom="11.2"
     inkscape:cx="49.124266"
     inkscape:cy="27.780172"
     inkscape:document-units="px"
     inkscape:current-layer="layer1"
     showgrid="false"
     inkscape:window-width="1920"
     inkscape:window-height="1146"
     inkscape:window-x="0"
     inkscape:window-y="26"
     inkscape:window-maximized="1" />
  <metadata
     id="metadata7709">
    <rdf:RDF>
      <cc:Work
         rdf:about="">
        <dc:format>image/svg+xml</dc:format>
        <dc:type
           rdf:resource="http://purl.org/dc/dcmitype/StillImage" />
        <dc:title />
      </cc:Work>
    </rdf:RDF>
  </metadata>
  <g
     inkscape:label="Calque 1"
     inkscape:groupmode="layer"
     id="layer1"
     transform="translate(0,-1002.3622)">
    <rect
       style="fill:#ffffff;fill-opacity:1;stroke:#6c0000;stroke-width:4;stroke-miterlimit:4;stroke-opacity:1;stroke-dasharray:none"
       id="rect7716"
       width="45.224636"
       height="45.704052"
       x="2.387682"
       y="1004.5102"
       ry="20.135351" />
    <path
       transform="matrix(2.6176279,0,0,2.6176279,2.0153225,949.91102)"
       d="m 15.357143,29.732143 a 6.5178571,6.5178571 0 1 1 -13.0357142,0 6.5178571,6.5178571 0 1 1 13.0357142,0 z"
       sodipodi:ry="6.5178571"
       sodipodi:rx="6.5178571"
       sodipodi:cy="29.732143"
       sodipodi:cx="8.8392859"
       id="path8249"
       style="fill:#141210;fill-opacity:1;stroke:none"
       sodipodi:type="arc" />
    <path
       transform="matrix(0.45487454,0,0,0.45487454,17.43945,1025.4048)"
       d="m 15.357143,29.732143 a 6.5178571,6.5178571 0 1 1 -13.0357142,0 6.5178571,6.5178571 0 1 1 13.0357142,0 z"
       sodipodi:ry="6.5178571"
       sodipodi:rx="6.5178571"
       sodipodi:cy="29.732143"
       sodipodi:cx="8.8392859"
       id="path8247"
       style="fill:#ffffff;fill-opacity:1;stroke:none"
       sodipodi:type="arc"
       inkscape:export-xdpi="115.2"
       inkscape:export-ydpi="115.2" />
    <path
       inkscape:export-ydpi="115.2"
       inkscape:export-xdpi="115.2"
       sodipodi:type="arc"
       style="fill:#ffffff;fill-opacity:1;stroke:none"
       id="path3014"
       sodipodi:cx="8.8392859"
       sodipodi:cy="29.732143"
       sodipodi:rx="6.5178571"
       sodipodi:ry="6.5178571"
       d="m 15.357143,29.732143 a 6.5178571,6.5178571 0 1 1 -13.0357142,0 6.5178571,6.5178571 0 1 1 13.0357142,0 z"
       transform="matrix(0.45487454,0,0,0.45487454,25.237408,1025.252)" />
    <path
       transform="matrix(0.45487454,0,0,0.45487454,32.996398,1011.904)"
       d="m 15.357143,29.732143 a 6.5178571,6.5178571 0 1 1 -13.0357142,0 6.5178571,6.5178571 0 1 1 13.0357142,0 z"
       sodipodi:ry="6.5178571"
       sodipodi:rx="6.5178571"
       sodipodi:cy="29.732143"
       sodipodi:cx="8.8392859"
       id="path3016"
       style="fill:#ffffff;fill-opacity:1;stroke:none"
       sodipodi:type="arc"
       inkscape:export-xdpi="115.2"
       inkscape:export-ydpi="115.2" />
    <path
       inkscape:export-ydpi="115.2"
       inkscape:export-xdpi="115.2"
       sodipodi:type="arc"
       style="fill:#ffffff;fill-opacity:1;stroke:none"
       id="path3018"
       sodipodi:cx="8.8392859"
       sodipodi:cy="29.732143"
       sodipodi:rx="6.5178571"
       sodipodi:ry="6.5178571"
       d="m 15.357143,29.732143 a 6.5178571,6.5178571 0 1 1 -13.0357142,0 6.5178571,6.5178571 0 1 1 13.0357142,0 z"
       transform="matrix(0.45487454,0,0,0.45487454,21.409805,1002.1427)" />
    <path
       transform="matrix(0.45487454,0,0,0.45487454,13.605102,1004.814)"
       d="m 15.357143,29.732143 a 6.5178571,6.5178571 0 1 1 -13.0357142,0 6.5178571,6.5178571 0 1 1 13.0357142,0 z"
       sodipodi:ry="6.5178571"
       sodipodi:rx="6.5178571"
       sodipodi:cy="29.732143"
       sodipodi:cx="8.8392859"
       id="path3020"
       style="fill:#ffffff;fill-opacity:1;stroke:none"
       sodipodi:type="arc"
       inkscape:export-xdpi="115.2"
       inkscape:export-ydpi="115.2" />
    <path
       inkscape:export-ydpi="115.2"
       inkscape:export-xdpi="115.2"
       sodipodi:type="arc"
       style="fill:#ffffff;fill-opacity:1;stroke:none"
       id="path3022"
       sodipodi:cx="8.8392859"
       sodipodi:cy="29.732143"
       sodipodi:rx="6.5178571"
       sodipodi:ry="6.5178571"
       d="m 15.357143,29.732143 a 6.5178571,6.5178571 0 1 1 -13.0357142,0 6.5178571,6.5178571 0 1 1 13.0357142,0 z"
       transform="matrix(0.45487454,0,0,0.45487454,9.3810837,1012.2589)" />
    <path
       transform="matrix(0.45487454,0,0,0.45487454,11.073914,1020.4868)"
       d="m 15.357143,29.732143 a 6.5178571,6.5178571 0 1 1 -13.0357142,0 6.5178571,6.5178571 0 1 1 13.0357142,0 z"
       sodipodi:ry="6.5178571"
       sodipodi:rx="6.5178571"
       sodipodi:cy="29.732143"
       sodipodi:cx="8.8392859"
       id="path3024"
       style="fill:#ffffff;fill-opacity:1;stroke:none"
       sodipodi:type="arc"
       inkscape:export-xdpi="115.2"
       inkscape:export-ydpi="115.2" />
    <path
       inkscape:export-ydpi="115.2"
       inkscape:export-xdpi="115.2"
       sodipodi:type="arc"
       style="fill:#ffffff;fill-opacity:1;stroke:none"
       id="path3026"
       sodipodi:cx="8.8392859"
       sodipodi:cy="29.732143"
       sodipodi:rx="6.5178571"
       sodipodi:ry="6.5178571"
       d="m 15.357143,29.732143 a 6.5178571,6.5178571 0 1 1 -13.0357142,0 6.5178571,6.5178571 0 1 1 13.0357142,0 z"
       transform="matrix(0.45487454,0,0,0.45487454,28.903705,1004.8777)" />
    <path
       transform="matrix(0.45487454,0,0,0.45487454,18.448477,1017.8278)"
       d="m 15.357143,29.732143 a 6.5178571,6.5178571 0 1 1 -13.0357142,0 6.5178571,6.5178571 0 1 1 13.0357142,0 z"
       sodipodi:ry="6.5178571"
       sodipodi:rx="6.5178571"
       sodipodi:cy="29.732143"
       sodipodi:cx="8.8392859"
       id="path3028"
       style="fill:#ffffff;fill-opacity:1;stroke:none"
       sodipodi:type="arc"
       inkscape:export-xdpi="115.2"
       inkscape:export-ydpi="115.2" />
    <path
       inkscape:export-ydpi="115.2"
       inkscape:export-xdpi="115.2"
       sodipodi:type="arc"
       style="fill:#ffffff;fill-opacity:1;stroke:none"
       id="path3030"
       sodipodi:cx="8.8392859"
       sodipodi:cy="29.732143"
       sodipodi:rx="6.5178571"
       sodipodi:ry="6.5178571"
       d="m 15.357143,29.732143 a 6.5178571,6.5178571 0 1 1 -13.0357142,0 6.5178571,6.5178571 0 1 1 13.0357142,0 z"
       transform="matrix(0.45487454,0,0,0.45487454,31.82794,1020.2328)" />
    <path
       inkscape:export-ydpi="115.2"
       inkscape:export-xdpi="115.2"
       sodipodi:type="arc"
       style="fill:#ffffff;fill-opacity:1;stroke:none"
       id="path3032"
       sodipodi:cx="8.8392859"
       sodipodi:cy="29.732143"
       sodipodi:rx="6.5178571"
       sodipodi:ry="6.5178571"
       d="m 15.357143,29.732143 a 6.5178571,6.5178571 0 1 1 -13.0357142,0 6.5178571,6.5178571 0 1 1 13.0357142,0 z"
       transform="matrix(0.45487454,0,0,0.45487454,19.837436,1010.5043)" />
    <path
       transform="matrix(0.45487454,0,0,0.45487454,26.024621,1015.4287)"
       d="m 15.357143,29.732143 a 6.5178571,6.5178571 0 1 1 -13.0357142,0 6.5178571,6.5178571 0 1 1 13.0357142,0 z"
       sodipodi:ry="6.5178571"
       sodipodi:rx="6.5178571"
       sodipodi:cy="29.732143"
       sodipodi:cx="8.8392859"
       id="path3034"
       style="fill:#ffffff;fill-opacity:1;stroke:none"
       sodipodi:type="arc"
       inkscape:export-xdpi="115.2"
       inkscape:export-ydpi="115.2" />
  </g>
</svg>
